<svg version="1.1" x="0px" y="0px" width="100%" viewBox="0 0 512 512" enable-background="new 0 0 512 512" xmlns="http://www.w3.org/2000/svg">
<path fill="#ffffff" opacity="1.000000" stroke="none" d="M163.750000,102.750000 C176.104263,90.748215 188.208511,78.996437 201.000000,66.577431 C201.000000,69.125504 201.000000,70.873604 201.000000,72.621696 C201.000000,103.283707 201.026947,133.945770 200.963379,164.607651 C200.956039,168.144623 200.881500,169.571396 205.842590,169.311066 C217.710052,168.688370 229.663101,169.606979 241.577866,170.012848 C247.666031,170.220245 253.748627,170.624512 259.829498,171.006989 C279.144928,172.221939 298.037323,175.901352 316.656281,181.029373 C334.191071,185.858795 351.025543,192.525650 367.108612,201.026321 C379.360413,207.501923 390.654297,215.364212 400.565491,225.092422 C408.439514,232.821075 416.884521,240.111221 423.818237,248.620895 C434.128052,261.273987 444.039276,274.375549 452.838226,288.107697 C466.950378,310.131897 476.505829,334.258728 483.093506,359.621490 C487.886871,378.076050 491.493835,396.634277 492.046753,415.743866 C492.246124,422.635162 492.965698,429.511414 492.336365,436.850311 C488.562378,431.953003 484.861298,426.997284 480.996735,422.172516 C475.598572,415.433014 470.283539,408.609161 464.555206,402.156708 C458.294495,395.104614 451.867859,388.157379 445.048676,381.651764 C426.648773,364.098083 406.598511,348.672913 384.453339,336.064819 C360.286957,322.306000 334.534454,312.537842 307.493744,306.336731 C297.875366,304.130951 287.951843,303.062378 278.106903,302.089539 C267.311859,301.022827 256.400421,299.716949 245.623825,300.241791 C232.346619,300.888428 219.173523,303.480835 205.918503,304.883392 C201.579071,305.342590 200.955307,307.574310 200.963135,311.168213 C201.028198,340.996857 201.000000,370.825745 201.000000,400.654541 C201.000000,402.269379 201.000000,403.884186 201.000000,405.166687 C144.287125,348.452576 87.572823,291.737030 33.149769,237.312805 C76.181343,192.973099 119.840668,147.986542 163.750000,102.750000 z"/>
</svg>