<svg version="1.1" x="0px" y="0px" width="100%" viewBox="0 0 512 512" enable-background="new 0 0 512 512" xmlns="http://www.w3.org/2000/svg">
<path fill="#ffffff" d="M131 18.4283C87.779 24.6171 53.8153 46.4385 25.7909 79C11.8877 95.1541 -2.13996 107.969 1.20988 131C2.88097 142.489 13.7012 152.013 22 159.13C44.3742 178.316 74.1515 198.448 103 205.625C133.976 213.331 152.549 197.501 171.699 175C185.047 159.316 196.166 139.868 220 143.59C258.321 149.575 292.276 180.127 320 205.17C342.738 225.708 377.611 256.757 378.96 290C380.234 321.408 338.706 338.769 328.901 367C316.015 404.105 355.62 444.506 379.001 468C387.083 476.121 394.915 484.443 405 490.124C413.305 494.803 423.668 494.812 433 493.895C449.346 492.289 464.549 468.435 474.299 457C491.259 437.111 506.917 411.476 510.7 385C512.449 372.755 511 359.366 511 347C511 336.641 512.341 325.216 510.536 315C507.943 300.322 501.979 285.943 496.91 272C483.894 236.198 456.657 202.547 431.4 174.715C382.458 120.783 323.944 73.3788 258 42.0224C219.493 23.7122 173.913 12.2835 131 18.4283z"/>
</svg>
