<svg version="1.1" x="0px" y="0px" width="100%" viewBox="0 0 512 512" enable-background="new 0 0 512 512" xmlns="http://www.w3.org/2000/svg">
<path fill="#e14107" d="M112 1.61267C98.4187 5.20532 88.4409 18.1317 78 26.625C17.0244 76.2266 5.96844 154.055 29.3302 226C40.9671 261.837 59.5106 294.573 81.3017 325.17C121.457 381.552 169.417 434.808 228 472.541C254.286 489.471 283.795 505.022 315 510.536C327.086 512.672 340.738 511 353 511C363.676 511 375.472 512.396 386 510.536C399.229 508.199 411.769 502.343 424 497.049C436.201 491.769 447.007 482.821 457 474.299C468.657 464.36 487.619 451.988 493.03 437C505.262 403.122 465.132 376.441 444 357.83C435.472 350.32 426.001 342.808 416 337.312C385.907 320.775 361.854 326.69 337 349.17C324.773 360.228 312.568 376.946 295 378.826C275.025 380.965 255.306 366.393 241 354.296C209.42 327.594 180.73 295.57 159.4 260C150.939 245.892 141.048 227.09 143.289 210C145.573 192.592 160.256 183.205 173 173.32C189.699 160.367 206.383 145.31 207.91 123C210.383 86.9002 179.714 45.7733 157.421 20.0038C145.756 6.52054 130.543 -3.29242 112 1.61267z"/>
</svg>
