<svg version="1.1" x="0px" y="0px" width="100%" viewBox="0 0 512 512" enable-background="new 0 0 512 512" xmlns="http://www.w3.org/2000/svg">
<path fill="#ffffff" d="M392 363L368 363L368 454C368 464.667 370.756 480.422 358.985 486.079C345.811 492.411 326.233 464.233 318 456C296.874 434.874 275.14 414.354 254.159 393.051C240.096 378.772 226.461 362.622 211.101 349.764C204.76 344.455 191.807 347 184 347C161.113 347 136.688 349.403 114 346.424C98.832 344.433 84.5144 347.343 84.0147 327C83.1152 290.382 84 253.63 84 217C84 204.723 80.0412 183.832 86.8503 173.09C93.2004 163.072 108.844 166 119 166L183 166C190.24 166 202.7 168.374 209 164.397C221.971 156.208 233.154 140.846 244 130L317 57C325.763 48.2369 334.46 39.3412 343.845 31.2354C347.45 28.1215 351.829 23.5768 357 25.4221C369.759 29.9753 368 44.1812 368 55L368 142L392 142L392 81C392 66.3761 392.6 51.609 391.961 37C390.784 10.1267 358.064 -11.9918 334.17 5.96295C321.16 15.7384 310.256 28.208 298.715 39.5756C276.283 61.669 254.116 84.0399 231.665 106.116C221.053 116.55 210.504 131.564 197.826 139.487C190.87 143.835 176.026 141 168 141C150.97 141 133.958 141.794 117 141.996C96.982 142.234 79.0796 139.401 65.9776 158C56.4524 171.521 61 195.091 61 211C61 254.264 59.6781 297.759 61.0154 341C61.4233 354.188 74.8472 366.87 87 370.362C95.0971 372.689 105.614 371 114 371L170 371C178.491 371 192.605 368.247 199.536 373.928C212.938 384.914 224.688 399.031 236.884 411.349C261.085 435.791 285.279 460.351 310.09 484.174C325.998 499.449 344.303 519.664 369 509.647C388.705 501.656 392 482.777 392 464L392 363M307 196L307 199L348.463 240.159L360.545 253.627L346.884 268.884L307 309L307 310C310.395 313.643 318.68 325.393 324.003 325.393C329.061 325.393 335.375 315.928 338.651 312.651C351.332 299.97 370.1 286.563 379 271L381 271C388.328 286.001 408.569 301.193 420.826 312.536C424.899 316.306 428.827 322.702 433.985 324.914C439.172 327.139 451.086 314.951 451.552 309.949C452.048 304.635 442.725 298.278 439.374 294.884C425.741 281.076 412.371 264.799 397 253C410.024 245.76 421.35 229.942 431.873 219.374C437.707 213.516 446.26 207.404 450.551 200.334C453.813 194.96 440.516 181.309 435.09 182.171C430.567 182.89 425.65 190.113 422.576 193.21C412.643 203.218 402.671 213.195 392.651 223.116C389.87 225.87 384.478 233.749 380.475 234.245C376.848 234.694 369.345 224.917 366.87 222.334C356.707 211.731 346.137 201.541 335.91 191C333.37 188.381 327.971 181.363 323.841 181.792C317.653 182.434 311.731 192.387 307 196z"/>
</svg>
