<svg version="1.1" x="0px" y="0px" width="100%" viewBox="0 0 128 128" xmlns="http://www.w3.org/2000/svg">
  <defs></defs>
  <path style=" stroke:none;fill-rule:nonzero;fill:rgb(100%,100%,100%);fill-opacity:1;" d="M 32.75 4.609 C 21.938 6.156 13.453 11.609 6.453 19.75 C 2.969 23.781 -0.531 27 0.297 32.75 C 0.719 35.625 3.422 38 5.5 39.781 C 11.094 44.578 18.531 49.609 25.75 51.406 C 33.5 53.328 38.141 49.375 42.922 43.75 C 46.266 39.828 49.047 34.969 55 35.891 C 64.578 37.391 73.063 45.031 80 51.297 C 85.688 56.422 94.406 64.188 94.734 72.5 C 95.063 80.359 84.672 84.688 82.219 91.75 C 79 101.031 88.906 111.125 94.75 117 C 96.766 119.031 98.734 121.109 101.25 122.531 C 103.328 123.703 105.922 123.703 108.25 123.469 C 112.344 123.078 116.141 117.109 118.578 114.25 C 122.813 109.281 126.734 102.875 127.672 96.25 C 128.109 93.188 127.75 89.844 127.75 86.75 C 127.75 84.156 128.078 81.297 127.641 78.75 C 126.984 75.078 125.5 71.484 124.234 68 C 120.969 59.047 114.172 50.641 107.844 43.672 C 95.609 30.203 80.984 18.344 64.5 10.5 C 54.875 5.922 43.484 3.078 32.75 4.609 Z M 32.75 4.609"></path>
</svg>
