<?xml version="1.0" encoding="UTF-8"?>
<svg xmlns="http://www.w3.org/2000/svg" xmlns:xlink="http://www.w3.org/1999/xlink" width="128px" height="128px" viewBox="0 0 128 128" version="1.1">
<g id="surface1">
<path style=" stroke:none;fill-rule:nonzero;fill:rgb(88.235294%,25.490196%,2.745098%);fill-opacity:1;" d="M 28 0.40625 C 24.609375 1.296875 22.109375 4.53125 19.5 6.65625 C 4.25 19.0625 1.484375 38.515625 7.328125 56.5 C 10.234375 65.453125 14.875 73.640625 20.328125 81.296875 C 30.359375 95.390625 42.359375 108.703125 57 118.140625 C 63.578125 122.375 70.953125 126.25 78.75 127.640625 C 81.765625 128.171875 85.1875 127.75 88.25 127.75 C 90.921875 127.75 93.875 128.09375 96.5 127.640625 C 99.8125 127.046875 102.9375 125.578125 106 124.265625 C 109.046875 122.9375 111.75 120.703125 114.25 118.578125 C 117.171875 116.09375 121.90625 113 123.25 109.25 C 126.3125 100.78125 116.28125 94.109375 111 89.453125 C 108.875 87.578125 106.5 85.703125 104 84.328125 C 96.484375 80.1875 90.46875 81.671875 84.25 87.296875 C 81.1875 90.0625 78.140625 94.234375 73.75 94.703125 C 68.75 95.234375 63.828125 91.59375 60.25 88.578125 C 52.359375 81.90625 45.1875 73.890625 39.84375 65 C 37.734375 61.46875 35.265625 56.765625 35.828125 52.5 C 36.390625 48.140625 40.0625 45.796875 43.25 43.328125 C 47.421875 40.09375 51.59375 36.328125 51.984375 30.75 C 52.59375 21.71875 44.921875 11.4375 39.359375 5 C 36.4375 1.625 32.640625 -0.828125 28 0.40625 Z M 28 0.40625 "/>
</g>
</svg>
