<?xml version="1.0" encoding="UTF-8"?>
<svg xmlns="http://www.w3.org/2000/svg" xmlns:xlink="http://www.w3.org/1999/xlink" width="128px" height="128px" viewBox="0 0 128 128" version="1.1">
<g id="surface1">
<path style=" stroke:none;fill-rule:nonzero;fill:rgb(100%,100%,100%);fill-opacity:1;" d="M 32.75 4.609375 C 21.9375 6.15625 13.453125 11.609375 6.453125 19.75 C 2.96875 23.78125 -0.53125 27 0.296875 32.75 C 0.71875 35.625 3.421875 38 5.5 39.78125 C 11.09375 44.578125 18.53125 49.609375 25.75 51.40625 C 33.5 53.328125 38.140625 49.375 42.921875 43.75 C 46.265625 39.828125 49.046875 34.96875 55 35.890625 C 64.578125 37.390625 73.0625 45.03125 80 51.296875 C 85.6875 56.421875 94.40625 64.1875 94.734375 72.5 C 95.0625 80.359375 84.671875 84.6875 82.21875 91.75 C 79 101.03125 88.90625 111.125 94.75 117 C 96.765625 119.03125 98.734375 121.109375 101.25 122.53125 C 103.328125 123.703125 105.921875 123.703125 108.25 123.46875 C 112.34375 123.078125 116.140625 117.109375 118.578125 114.25 C 122.8125 109.28125 126.734375 102.875 127.671875 96.25 C 128.109375 93.1875 127.75 89.84375 127.75 86.75 C 127.75 84.15625 128.078125 81.296875 127.640625 78.75 C 126.984375 75.078125 125.5 71.484375 124.234375 68 C 120.96875 59.046875 114.171875 50.640625 107.84375 43.671875 C 95.609375 30.203125 80.984375 18.34375 64.5 10.5 C 54.875 5.921875 43.484375 3.078125 32.75 4.609375 Z M 32.75 4.609375 "/>
</g>
</svg>
