<?xml version="1.0" encoding="UTF-8"?>
<svg xmlns="http://www.w3.org/2000/svg" xmlns:xlink="http://www.w3.org/1999/xlink" width="128px" height="128px" viewBox="0 0 128 128" version="1.1">
<g id="surface1">
<path style=" stroke:none;fill-rule:nonzero;fill:rgb(88.235294%,25.490196%,2.745098%);fill-opacity:1;" d="M 52 44 L 53.75 38.5 C 54.890625 38.84375 57.015625 40.15625 58.171875 39.484375 C 58.859375 39.078125 59.078125 37.9375 59.34375 37.25 C 60.140625 35.265625 60.9375 33.28125 61.625 31.25 C 63.734375 25.015625 65.78125 17.4375 71.75 13.828125 C 81.328125 8.03125 96.09375 14.046875 96.984375 26 C 97.328125 30.859375 95.140625 35.796875 93.40625 40.25 C 91.09375 46.171875 88.984375 52.25 86.875 58.25 C 86 60.734375 84.515625 63.375 84.25 66 C 80.78125 64 78.109375 60.84375 74.5 58.90625 C 64.75 53.703125 52.421875 52.90625 42.25 57.46875 C 18.78125 68 12.25 100.28125 31.578125 118.125 C 34.40625 120.75 37.484375 123.0625 41 124.671875 C 61.78125 134.21875 86.71875 122.6875 92.5625 100.5 C 93.84375 95.671875 93.875 89.9375 93.171875 85 C 92.875 82.953125 91.640625 80.65625 91.75 78.609375 C 91.90625 75.546875 94.109375 71.890625 95.125 69 C 97.9375 60.96875 101.0625 53.03125 103.875 45 C 105.28125 41 107.234375 36.96875 107.921875 32.75 C 109.34375 23.96875 106.78125 14.984375 100.671875 8.515625 C 89.359375 -3.453125 69.640625 -2.140625 59.046875 9.75 C 55.09375 14.1875 53.703125 20.09375 51.59375 25.5 C 49.59375 30.625 47.765625 35.828125 45.875 41 C 45.375 42.328125 43.53125 45.328125 44.65625 46.625 C 46.03125 48.234375 49.796875 48.953125 51.75 49.625 C 52.453125 49.859375 53.453125 50.375 54.1875 50.09375 C 55.171875 49.71875 56.359375 46.5625 55.734375 45.671875 C 55.125 44.78125 53 44.28125 52 44 Z M 52 44 "/>
</g>
</svg>
