<svg version="1.1" x="0px" y="0px" width="100%" viewBox="0 0 128 128" xmlns="http://www.w3.org/2000/svg">
  <defs></defs>
  <path style=" stroke:none;fill-rule:nonzero;fill:rgb(88.235294%,25.490196%,2.745098%);fill-opacity:1;" d="M 52 44 L 53.75 38.5 C 54.891 38.844 57.016 40.156 58.172 39.484 C 58.859 39.078 59.078 37.938 59.344 37.25 C 60.141 35.266 60.938 33.281 61.625 31.25 C 63.734 25.016 65.781 17.438 71.75 13.828 C 81.328 8.031 96.094 14.047 96.984 26 C 97.328 30.859 95.141 35.797 93.406 40.25 C 91.094 46.172 88.984 52.25 86.875 58.25 C 86 60.734 84.516 63.375 84.25 66 C 80.781 64 78.109 60.844 74.5 58.906 C 64.75 53.703 52.422 52.906 42.25 57.469 C 18.781 68 12.25 100.281 31.578 118.125 C 34.406 120.75 37.484 123.063 41 124.672 C 61.781 134.219 86.719 122.688 92.563 100.5 C 93.844 95.672 93.875 89.938 93.172 85 C 92.875 82.953 91.641 80.656 91.75 78.609 C 91.906 75.547 94.109 71.891 95.125 69 C 97.938 60.969 101.063 53.031 103.875 45 C 105.281 41 107.234 36.969 107.922 32.75 C 109.344 23.969 106.781 14.984 100.672 8.516 C 89.359 -3.453 69.641 -2.141 59.047 9.75 C 55.094 14.188 53.703 20.094 51.594 25.5 C 49.594 30.625 47.766 35.828 45.875 41 C 45.375 42.328 43.531 45.328 44.656 46.625 C 46.031 48.234 49.797 48.953 51.75 49.625 C 52.453 49.859 53.453 50.375 54.188 50.094 C 55.172 49.719 56.359 46.563 55.734 45.672 C 55.125 44.781 53 44.281 52 44 Z M 52 44"></path>
</svg>
