<?xml version="1.0" encoding="UTF-8"?>
<svg xmlns="http://www.w3.org/2000/svg" xmlns:xlink="http://www.w3.org/1999/xlink" width="128px" height="128px" viewBox="0 0 128 128" version="1.1">
<g id="surface1">
<path style=" stroke:none;fill-rule:nonzero;fill:rgb(100%,100%,100%);fill-opacity:1;" d="M 89.421875 16 C 92.109375 21.953125 91.25 28.625 91.25 35 C 91.25 45.921875 91.34375 56.828125 91.5 67.75 C 91.53125 70.234375 93.609375 72.234375 94.859375 74.25 C 96.75 77.28125 98.28125 81 98.9375 84.5 C 102.609375 104.03125 90.5625 125.125 69.75 127.671875 C 65 128.265625 59.109375 128.1875 54.5 126.890625 C 37.203125 122.015625 27.125 105.484375 28.796875 88 C 29.265625 83.09375 31.03125 78.484375 33.46875 74.25 C 34.734375 72.03125 37.453125 69.625 37.5 67 C 37.6875 57 37.5 47 37.5 37 C 37.5 30.96875 37.046875 24.609375 38.734375 18.75 C 41.609375 8.71875 50.59375 1.734375 60.75 0.359375 C 72.75 -1.28125 84.4375 4.921875 89.421875 16 Z M 48.5 60.25 C 51.390625 59.5625 54.03125 58.140625 57 57.609375 C 65.578125 56.046875 72.53125 57.890625 80.5 60.75 L 80.5 34 C 80.5 29.140625 81.1875 23.953125 78.90625 19.5 C 72.875 7.703125 55.453125 8.828125 49.84375 20.25 C 47.84375 24.3125 48.5 29.84375 48.5 34.25 C 48.5 42.90625 48.421875 51.59375 48.5 60.25 Z M 48.5 60.25 "/>
</g>
</svg>
