<svg version="1.1" x="0px" y="0px" width="100%" viewBox="0 0 128 128" xmlns="http://www.w3.org/2000/svg">
  <defs></defs>
  <path style=" stroke:none;fill-rule:nonzero;fill:rgb(100%,100%,100%);fill-opacity:1;" d="M 89.422 16 C 92.109 21.953 91.25 28.625 91.25 35 C 91.25 45.922 91.344 56.828 91.5 67.75 C 91.531 70.234 93.609 72.234 94.859 74.25 C 96.75 77.281 98.281 81 98.938 84.5 C 102.609 104.031 90.563 125.125 69.75 127.672 C 65 128.266 59.109 128.188 54.5 126.891 C 37.203 122.016 27.125 105.484 28.797 88 C 29.266 83.094 31.031 78.484 33.469 74.25 C 34.734 72.031 37.453 69.625 37.5 67 C 37.688 57 37.5 47 37.5 37 C 37.5 30.969 37.047 24.609 38.734 18.75 C 41.609 8.719 50.594 1.734 60.75 0.359 C 72.75 -1.281 84.438 4.922 89.422 16 Z M 48.5 60.25 C 51.391 59.563 54.031 58.141 57 57.609 C 65.578 56.047 72.531 57.891 80.5 60.75 L 80.5 34 C 80.5 29.141 81.188 23.953 78.906 19.5 C 72.875 7.703 55.453 8.828 49.844 20.25 C 47.844 24.313 48.5 29.844 48.5 34.25 C 48.5 42.906 48.422 51.594 48.5 60.25 Z M 48.5 60.25"></path>
</svg>
