<?xml version="1.0" encoding="UTF-8"?>
<svg xmlns="http://www.w3.org/2000/svg" xmlns:xlink="http://www.w3.org/1999/xlink" width="128px" height="128px" viewBox="0 0 128 128" version="1.1">
<g id="surface1">
<path style=" stroke:none;fill-rule:nonzero;fill:rgb(100%,100%,100%);fill-opacity:1;" d="M 47 64 L 47.25 64 L 53.5 57.75 L 53.5 57.5 L 46.25 50.25 C 45.21875 49.214844 43.78125 48.105469 43.800781 46.5 C 43.832031 44.089844 46.503906 42.761719 48.5 43.882812 C 52.074219 45.890625 55.113281 50.113281 58 53 C 59.671875 51.824219 61.0625 50.199219 62.5 48.75 C 63 48.246094 63.949219 47.542969 63.949219 46.75 C 63.949219 45.527344 61.789062 44.039062 61 43.25 C 58.53125 40.78125 55.902344 38.507812 54.980469 35 C 53.925781 30.988281 55.328125 26.644531 54.550781 22.5 C 52.386719 11.015625 43.023438 1.515625 31.25 0.0703125 C 29.347656 -0.160156 22.074219 -0.992188 22.074219 2 C 22.074219 3.21875 23.472656 4.222656 24.25 5 C 26.242188 6.992188 28.3125 8.933594 30.226562 11 C 36.789062 18.082031 31.8125 24.589844 26 29.976562 C 19.6875 35.824219 13.832031 32.082031 8.75 27 C 7.441406 25.691406 3.902344 20.746094 1.761719 21.800781 C 0.03125 22.648438 0.25 25.394531 0.25 27 C 0.25 32.101562 1.574219 37.136719 4.265625 41.5 C 8.808594 48.859375 16.664062 53.636719 25.25 54.457031 C 29.039062 54.820312 32.828125 53.613281 36.5 54.925781 C 40.714844 56.429688 43.914062 60.914062 47 64 M 45 75.75 L 44.75 75.75 L 37.25 68 L 37 68 L 12.75 92.25 C 8.628906 96.371094 3.421875 100.304688 1.5 106 C -3.054688 119.492188 11.042969 132.6875 24.25 127.03125 C 29.558594 124.757812 33.496094 119.503906 37.5 115.5 L 61 92 C 59.5625 89.957031 57.515625 88.265625 55.75 86.5 C 55.152344 85.902344 53.765625 84.9375 53.765625 84 C 53.765625 82.925781 55.558594 81.691406 56.25 81 L 86 51.25 C 88.898438 48.351562 92.335938 43.339844 96 41.507812 C 97.050781 40.980469 98.609375 41.25 99.75 41.25 L 108 41.25 C 109.121094 41.25 111.1875 41.644531 112.089844 40.847656 C 114.125 39.054688 115.347656 34.675781 116.5625 32.25 L 124.3125 16.75 C 125.367188 14.640625 127.277344 12.066406 127.722656 9.75 C 128.109375 7.71875 123.097656 4.089844 121.75 2.75 C 121.152344 2.15625 120.433594 1.207031 119.5 1.238281 C 117.316406 1.3125 114.195312 3.714844 112.25 4.6875 L 95.5 13.0625 C 93.574219 14.023438 89.175781 15.265625 88.007812 17.097656 C 87.367188 18.097656 87.75 20.105469 87.75 21.25 C 87.75 24.535156 88.734375 29.671875 87.597656 32.75 C 87.03125 34.292969 85.136719 35.613281 84 36.75 C 81.125 39.621094 78.128906 42.371094 75.25 45.25 L 55.25 65.25 C 51.898438 68.601562 47.730469 71.875 45 75.75 Z M 82 64.5 C 80.738281 65.761719 76.300781 68.914062 76.300781 70.75 C 76.300781 71.625 77.445312 72.441406 78 73 L 104.25 99.25 C 106.519531 101.519531 113.226562 106.09375 112.402344 109.75 C 111.964844 111.675781 109.722656 112.769531 108 111.746094 C 104.917969 109.917969 102.28125 106.28125 99.75 103.75 L 73.5 77.5 C 72.941406 76.945312 72.125 75.800781 71.25 75.800781 C 69.753906 75.800781 66.390625 79.796875 65.59375 81 C 64.625 82.460938 67.085938 84.085938 68 85 L 96.5 113.5 C 99.695312 116.695312 102.734375 120.621094 107.25 121.894531 C 115.945312 124.34375 124.257812 116.1875 122.429688 107.5 C 121.417969 102.703125 117.296875 99.546875 114 96.25 L 88.5 70.75 C 86.417969 68.667969 84.410156 66.195312 82 64.5 Z M 82 64.5 "/>
</g>
</svg>
