<svg version="1.0" width="100%" viewBox="0 0 128 128" xmlns="http://www.w3.org/2000/svg">
  <defs></defs>
  <g transform="matrix(0.015103, 0, 0, -0.015103, -0.372819, 128.187057)" fill="#000000" stroke="none">
    <path d="M5775 8440 c-3 -5 -13 -10 -22 -10 -54 0 -148 -79 -169 -142 -4 -10 -10 -18 -15 -18 -5 0 -9 -11 -9 -24 0 -14 -4 -28 -10 -31 -6 -4 -10 -65 -10 -151 0 -121 -2 -144 -15 -144 -8 0 -15 -4 -15 -9 0 -5 -25 -13 -55 -16 -30 -4 -55 -11 -55 -16 0 -5 -11 -9 -24 -9 -14 0 -27 -4 -30 -9 -3 -5 -18 -12 -33 -15 -40 -10 -83 -30 -83 -38 0 -4 -18 -11 -40 -14 -22 -4 -40 -10 -40 -15 0 -5 -9 -9 -20 -9 -11 0 -20 -4 -20 -9 0 -5 -8 -11 -17 -15 -21 -7 -56 -28 -64 -39 -3 -4 -21 -10 -41 -13 -33 -6 -39 -2 -136 95 -56 56 -105 101 -110 101 -5 0 -15 7 -22 15 -7 8 -25 15 -41 15 -15 0 -31 5 -34 10 -3 6 -28 10 -55 10 -27 0 -52 -4 -55 -10 -3 -5 -17 -10 -31 -10 -13 0 -24 -4 -24 -9 0 -5 -12 -12 -26 -15 -34 -9 -344 -320 -367 -368 -9 -20 -17 -52 -17 -72 0 -20 -4 -36 -10 -36 -5 0 -10 -11 -10 -25 0 -14 5 -25 10 -25 6 0 10 -16 10 -36 0 -59 29 -104 132 -205 62 -62 98 -105 98 -118 0 -12 -4 -21 -10 -21 -5 0 -10 -5 -10 -11 0 -16 -32 -82 -47 -97 -7 -7 -13 -19 -13 -26 0 -17 -24 -66 -32 -66 -3 0 -9 -13 -13 -30 -4 -16 -11 -32 -16 -35 -5 -4 -9 -17 -9 -31 0 -13 -4 -24 -9 -24 -5 0 -12 -20 -15 -45 -4 -24 -11 -47 -17 -50 -5 -4 -9 -17 -9 -31 0 -13 -4 -24 -10 -24 -5 0 -10 -12 -10 -27 0 -16 -4 -33 -8 -39 -5 -8 -63 -13 -175 -15 -96 -2 -171 -8 -175 -14 -7 -10 -37 -30 -62 -42 -26 -12 -69 -63 -87 -103 -4 -8 -11 -18 -17 -22 -7 -5 -11 -94 -11 -270 0 -212 3 -269 15 -295 8 -18 18 -33 22 -33 5 0 8 -6 8 -14 0 -19 66 -86 84 -86 8 0 16 -7 20 -15 3 -8 17 -15 31 -15 14 0 25 -4 25 -10 0 -6 65 -11 163 -12 l162 -3 3 -37 c2 -21 7 -38 13 -38 5 0 9 -16 9 -35 0 -19 4 -35 9 -35 5 0 11 -18 15 -40 3 -22 11 -40 16 -40 6 0 10 -11 10 -25 0 -14 4 -25 9 -25 5 0 12 -13 16 -30 4 -16 11 -32 16 -35 5 -4 9 -17 9 -31 0 -13 4 -24 9 -24 5 0 12 -12 16 -27 3 -15 15 -34 25 -43 10 -9 22 -28 25 -43 4 -15 11 -30 16 -33 24 -15 2 -51 -81 -133 -49 -49 -90 -92 -90 -96 0 -4 -11 -20 -25 -37 -18 -22 -25 -41 -25 -74 0 -24 -4 -44 -10 -44 -13 0 -13 -45 -1 -68 6 -9 13 -34 16 -54 3 -21 10 -38 15 -38 6 0 10 -7 10 -15 0 -19 317 -335 336 -335 8 0 14 -3 14 -8 0 -4 19 -16 43 -26 33 -14 58 -17 122 -13 75 4 135 22 135 40 0 4 9 11 20 15 11 4 62 49 114 100 89 88 96 92 117 80 13 -7 29 -19 37 -25 7 -7 20 -13 28 -13 8 0 14 -3 14 -8 0 -8 73 -42 90 -42 6 0 10 -3 10 -8 0 -8 43 -28 83 -38 15 -3 30 -10 33 -15 3 -5 16 -9 30 -9 13 0 24 -4 24 -9 0 -5 20 -12 45 -15 24 -4 47 -11 50 -17 4 -5 17 -9 31 -9 13 0 24 -4 24 -10 0 -5 9 -10 20 -10 19 0 20 -7 20 -145 0 -90 4 -145 10 -145 6 0 10 -11 10 -24 0 -14 4 -27 9 -30 5 -3 12 -17 15 -31 8 -30 75 -100 105 -110 12 -3 21 -11 21 -16 0 -5 11 -9 25 -9 14 0 25 -4 25 -10 0 -16 489 -13 523 3 15 6 27 15 27 20 0 4 6 7 14 7 8 0 21 6 28 13 7 7 21 16 31 20 9 3 22 17 27 29 14 31 33 62 45 70 6 4 12 81 15 175 5 162 6 168 28 178 12 5 22 13 22 17 0 5 16 8 35 8 19 0 35 4 35 9 0 5 23 12 50 16 28 4 50 10 50 13 0 8 44 28 83 38 15 3 30 10 33 15 3 5 16 9 30 9 13 0 24 4 24 9 0 5 14 12 30 16 17 4 30 11 30 16 0 5 9 9 20 9 11 0 20 5 20 10 0 6 18 18 40 27 22 10 40 21 40 25 0 23 31 -2 120 -92 54 -55 105 -100 114 -100 9 0 16 -4 16 -10 0 -5 6 -10 14 -10 8 0 16 -6 19 -12 2 -9 34 -13 112 -13 78 0 110 4 113 13 2 6 12 12 22 12 10 0 20 7 24 15 3 8 11 15 18 15 15 0 288 270 288 285 0 6 9 17 20 25 10 8 22 26 25 42 4 15 11 30 16 33 11 8 12 165 0 165 -4 0 -11 16 -14 35 -5 28 -28 58 -116 145 -100 99 -129 140 -102 140 5 0 12 13 16 28 3 15 15 34 25 42 11 8 20 18 20 23 0 12 32 81 41 87 3 3 9 22 13 43 4 20 11 37 16 37 6 0 10 9 10 20 0 11 4 20 9 20 5 0 12 20 15 45 4 24 11 47 17 50 5 4 9 17 9 31 0 13 4 24 9 24 5 0 13 25 16 55 l7 55 159 0 c88 0 159 4 159 9 0 4 16 11 36 14 20 3 43 14 52 25 10 10 25 21 35 25 9 4 22 18 27 32 5 14 14 25 20 25 5 0 10 9 10 19 0 11 5 21 11 23 6 2 14 27 17 56 2 29 8 52 13 52 13 0 11 347 -1 355 -5 3 -10 24 -10 47 0 55 -25 104 -85 164 -53 53 -79 68 -107 65 -10 -1 -18 3 -18 8 0 7 -53 11 -159 11 l-160 0 -6 55 c-4 30 -11 58 -16 61 -5 3 -9 16 -9 30 0 13 -4 24 -9 24 -4 0 -11 16 -14 36 -7 42 -29 94 -39 94 -4 0 -11 18 -14 40 -4 22 -10 40 -15 40 -5 0 -9 9 -9 20 0 11 -4 20 -9 20 -5 0 -12 12 -16 27 -3 15 -15 34 -25 43 -10 9 -22 28 -25 43 -4 15 -11 30 -17 33 -5 3 28 44 74 90 46 47 86 93 89 102 4 9 17 24 28 32 13 9 24 30 28 52 3 21 9 38 14 38 5 0 9 34 9 75 0 41 -4 75 -9 75 -5 0 -11 17 -14 38 -4 21 -15 44 -27 52 -11 8 -20 20 -20 27 0 16 -247 263 -263 263 -7 0 -19 9 -27 20 -17 24 -65 50 -92 50 -10 0 -18 5 -18 10 0 6 -26 10 -59 10 -33 0 -63 -4 -66 -10 -3 -5 -17 -10 -31 -10 -13 0 -24 -4 -24 -9 0 -5 -12 -12 -27 -16 -15 -3 -70 -49 -126 -107 -88 -89 -102 -99 -125 -93 -15 4 -28 11 -30 16 -2 5 -12 9 -23 9 -10 0 -19 4 -19 9 0 5 -13 12 -30 16 -16 4 -30 11 -30 16 0 5 -9 9 -20 9 -11 0 -20 4 -20 9 0 5 -13 12 -30 16 -16 4 -30 11 -30 16 0 5 -9 9 -20 9 -11 0 -20 4 -20 9 0 5 -18 11 -40 15 -38 6 -78 22 -90 37 -3 3 -26 9 -52 12 -46 6 -79 20 -104 43 -9 8 -14 62 -16 174 -2 120 -6 164 -15 168 -7 2 -13 10 -13 19 0 27 -109 124 -146 130 -19 3 -34 10 -34 14 0 13 -477 11 -485 -1z m415 -180 c0 -5 10 -10 23 -10 13 0 34 -12 48 -26 23 -25 24 -30 27 -220 l3 -194 32 -31 c23 -23 44 -33 74 -37 24 -2 43 -9 43 -13 0 -5 16 -9 35 -9 19 0 35 -4 35 -10 0 -5 12 -10 28 -10 15 0 40 -7 56 -15 15 -8 37 -15 47 -15 11 0 19 -4 19 -9 0 -5 18 -11 40 -15 22 -3 40 -10 40 -14 0 -9 74 -42 94 -42 7 0 21 -9 30 -19 10 -11 29 -22 44 -26 14 -3 33 -15 42 -25 9 -10 28 -22 43 -25 15 -4 27 -11 27 -16 0 -5 20 -9 45 -9 25 0 45 5 45 10 0 6 5 10 12 10 7 0 67 56 135 125 l123 125 48 0 c44 0 52 -4 92 -45 24 -25 50 -45 57 -45 7 0 13 -6 13 -13 0 -7 41 -53 90 -102 61 -60 90 -97 90 -112 0 -13 6 -23 13 -24 10 0 10 -2 0 -6 -7 -2 -13 -14 -13 -25 0 -14 -45 -65 -125 -145 -69 -68 -125 -130 -125 -138 0 -8 -4 -15 -10 -15 -5 0 -10 -18 -10 -40 0 -22 3 -40 8 -40 4 0 15 -18 25 -40 9 -22 21 -40 27 -40 5 0 10 -9 10 -20 0 -11 4 -20 9 -20 5 0 11 -8 15 -17 6 -19 27 -55 37 -63 3 -3 9 -22 13 -42 4 -21 11 -38 16 -38 6 0 10 -9 10 -20 0 -11 4 -20 10 -20 5 0 13 -18 16 -40 4 -22 10 -40 15 -40 5 0 9 -11 9 -25 0 -14 4 -25 9 -25 5 0 13 -25 16 -55 4 -30 11 -58 16 -61 5 -3 9 -18 9 -35 0 -16 5 -29 10 -29 6 0 10 -11 10 -25 0 -14 12 -35 27 -50 28 -25 29 -25 205 -25 112 0 178 -4 178 -10 0 -5 10 -10 22 -10 25 0 58 -27 58 -47 0 -7 5 -13 10 -13 6 0 10 -75 10 -206 l0 -206 -29 -29 c-16 -16 -39 -29 -50 -29 -12 0 -21 -4 -21 -10 0 -6 -67 -10 -180 -10 -179 0 -179 0 -205 -25 -15 -16 -25 -37 -25 -55 0 -17 -4 -30 -10 -30 -5 0 -10 -11 -10 -25 0 -14 -4 -25 -9 -25 -4 0 -11 -23 -14 -52 -4 -28 -11 -56 -17 -62 -5 -5 -10 -20 -10 -33 0 -13 -4 -23 -9 -23 -5 0 -11 -18 -15 -40 -3 -22 -10 -40 -14 -40 -7 0 -32 -48 -32 -62 0 -16 -35 -88 -42 -88 -5 0 -8 -6 -8 -14 0 -8 -6 -21 -13 -28 -7 -7 -21 -30 -30 -50 -10 -21 -22 -38 -27 -38 -6 0 -10 -9 -10 -20 0 -11 -4 -20 -10 -20 -5 0 -10 -17 -10 -38 0 -26 6 -42 20 -52 11 -8 20 -20 20 -27 0 -7 5 -13 10 -13 18 0 196 -183 211 -218 7 -17 17 -32 21 -32 20 0 1 -55 -29 -88 -7 -7 -13 -18 -13 -22 0 -15 -210 -220 -224 -220 -8 0 -16 -7 -20 -15 -4 -11 -21 -15 -63 -15 l-57 0 -129 131 -130 131 -59 -4 c-33 -2 -63 -9 -66 -14 -9 -12 -42 -33 -64 -40 -10 -4 -18 -10 -18 -15 0 -5 -9 -9 -19 -9 -10 0 -21 -7 -25 -15 -3 -8 -17 -15 -31 -15 -14 0 -25 -4 -25 -10 0 -5 -9 -10 -20 -10 -11 0 -20 -4 -20 -9 0 -5 -13 -12 -30 -16 -16 -4 -30 -11 -30 -16 0 -5 -8 -9 -19 -9 -10 0 -32 -7 -47 -15 -16 -8 -37 -15 -46 -15 -9 0 -20 -4 -23 -10 -3 -5 -17 -10 -31 -10 -13 0 -24 -4 -24 -9 0 -5 -29 -13 -65 -16 -36 -4 -65 -11 -65 -16 0 -5 -9 -9 -20 -9 -10 0 -33 -13 -49 -29 l-30 -29 -3 -194 -3 -194 -30 -29 -29 -30 -216 0 -216 0 -29 30 -30 29 -4 205 c-3 195 -4 205 -25 222 -11 10 -31 18 -43 19 -13 0 -23 4 -23 9 0 5 -29 13 -65 16 -36 4 -65 11 -65 16 0 5 -11 9 -25 9 -14 0 -25 4 -25 9 0 5 -20 12 -45 15 -24 4 -47 11 -50 17 -4 5 -17 9 -31 9 -13 0 -24 4 -24 9 0 5 -13 12 -30 16 -16 4 -30 11 -30 16 0 5 -9 9 -20 9 -11 0 -20 4 -20 9 0 5 -13 12 -30 16 -16 4 -30 11 -30 16 0 5 -9 9 -20 9 -11 0 -20 4 -20 10 0 5 -17 17 -37 27 -21 9 -44 24 -52 31 -10 10 -32 13 -71 10 l-57 -4 -125 -127 -125 -127 -52 0 -52 0 -145 145 -144 144 0 50 0 49 125 124 c69 69 125 130 125 136 0 5 5 12 12 14 20 7 12 87 -10 106 -11 10 -23 28 -27 42 -4 14 -16 32 -26 41 -11 9 -19 19 -19 23 0 14 -35 86 -42 86 -5 0 -8 4 -8 10 0 16 -34 90 -41 90 -4 0 -10 23 -14 50 -4 28 -11 50 -16 50 -5 0 -9 11 -9 25 0 14 -4 25 -9 25 -5 0 -13 25 -16 55 -4 30 -11 58 -16 61 -5 3 -9 18 -9 35 0 16 -4 29 -10 29 -5 0 -10 11 -10 24 0 52 -16 56 -211 56 -113 0 -179 4 -179 10 0 6 -13 10 -30 10 -37 0 -70 27 -70 57 0 13 -4 23 -10 23 -6 0 -10 68 -10 185 0 117 4 185 10 185 6 0 10 10 10 22 0 25 27 58 47 58 7 0 13 5 13 10 0 6 68 10 183 10 202 0 232 7 243 53 3 15 10 27 15 27 5 0 9 16 9 35 0 19 4 35 9 35 5 0 12 25 16 55 3 30 11 55 16 55 5 0 9 11 9 24 0 14 4 27 9 31 6 3 13 26 17 50 3 25 10 45 15 45 5 0 9 9 9 20 0 11 4 20 9 20 5 0 12 14 16 30 4 17 11 30 16 30 5 0 9 9 9 20 0 11 4 20 9 20 5 0 12 14 16 30 4 17 11 30 16 30 5 0 9 9 9 20 0 11 5 20 10 20 6 0 18 18 27 40 10 22 21 40 25 40 5 0 8 20 8 45 0 45 -2 47 -125 168 -69 68 -125 128 -125 135 0 7 -4 12 -10 12 -5 0 -10 21 -10 48 l0 47 150 150 150 150 47 -1 c26 -1 49 -6 51 -13 2 -6 8 -11 14 -11 5 0 65 -56 134 -125 118 -118 127 -125 164 -125 22 0 40 4 40 9 0 5 13 12 28 16 15 3 34 15 42 25 8 11 20 20 26 20 7 0 19 6 26 13 15 15 81 47 97 47 6 0 11 5 11 10 0 6 11 10 25 10 14 0 25 4 25 9 0 5 13 12 30 16 16 4 32 11 35 16 4 5 17 9 31 9 13 0 24 4 24 9 0 5 20 12 45 15 24 4 47 11 50 17 4 5 19 9 36 9 16 0 29 4 29 9 0 4 24 11 54 15 42 5 61 13 84 36 l30 29 3 195 c4 190 5 195 28 220 14 14 35 26 48 26 13 0 23 5 23 10 0 6 67 10 180 10 113 0 180 -4 180 -10z" style="fill: rgb(255, 255, 255);"></path>
    <path d="M5976 6932 c-3 -5 -52 -12 -108 -15 -57 -4 -104 -11 -106 -17 -2 -5 -15 -10 -28 -10 -13 0 -24 -4 -24 -9 0 -5 -18 -11 -40 -15 -22 -3 -40 -11 -40 -16 0 -6 -9 -10 -20 -10 -11 0 -20 -4 -20 -9 0 -5 -13 -12 -30 -16 -16 -4 -30 -11 -30 -16 0 -5 -7 -9 -15 -9 -9 0 -26 -11 -39 -25 -13 -14 -27 -25 -30 -25 -4 0 -25 -18 -47 -40 -22 -22 -46 -40 -54 -40 -8 0 -15 -7 -15 -15 0 -9 -18 -33 -40 -54 -22 -21 -40 -43 -40 -49 0 -7 -9 -17 -20 -24 -11 -7 -20 -21 -20 -30 0 -9 -6 -21 -13 -25 -14 -8 -47 -73 -47 -92 0 -6 -4 -11 -10 -11 -5 0 -10 -11 -10 -25 0 -14 -4 -25 -9 -25 -5 0 -12 -22 -16 -50 -4 -27 -11 -50 -16 -50 -5 0 -9 -18 -9 -39 0 -22 -4 -43 -10 -46 -6 -4 -10 -65 -10 -151 0 -89 4 -144 10 -144 6 0 10 -20 10 -45 0 -25 4 -45 9 -45 5 0 12 -20 15 -45 4 -24 11 -47 17 -50 5 -4 9 -17 9 -31 0 -13 4 -24 9 -24 5 0 12 -13 16 -30 4 -16 11 -30 16 -30 5 0 9 -9 9 -19 0 -10 7 -21 15 -25 8 -3 15 -11 15 -18 0 -8 9 -20 20 -28 11 -8 20 -20 20 -27 0 -7 18 -30 40 -52 22 -22 40 -44 40 -50 0 -6 5 -11 11 -11 6 0 30 -20 55 -45 24 -25 48 -45 54 -45 5 0 20 -11 31 -25 12 -13 35 -27 50 -30 16 -4 29 -10 29 -13 0 -8 74 -42 90 -42 6 0 10 -4 10 -10 0 -5 11 -10 25 -10 14 0 25 -4 25 -9 0 -5 25 -13 55 -16 30 -4 58 -11 61 -16 3 -5 34 -9 70 -9 36 0 64 -4 64 -10 0 -5 24 -10 54 -10 30 0 58 5 61 10 3 6 35 10 71 10 35 0 64 4 64 9 0 4 23 11 52 14 28 4 56 11 62 17 5 5 20 10 33 10 13 0 23 4 23 9 0 5 14 12 30 16 17 4 30 10 30 13 0 4 18 15 40 25 22 9 40 21 40 27 0 5 9 10 19 10 10 0 21 7 25 15 3 8 12 15 20 15 15 0 186 167 186 182 0 5 11 20 25 34 14 14 25 31 25 39 0 8 5 15 10 15 6 0 10 5 10 11 0 6 7 17 15 25 8 9 15 26 15 40 0 13 5 24 10 24 6 0 10 7 10 15 0 8 4 15 10 15 5 0 13 18 16 40 4 22 10 40 15 40 5 0 9 15 9 34 0 19 6 36 13 39 9 3 12 54 12 212 0 158 -3 209 -12 213 -7 2 -13 19 -13 38 0 19 -4 34 -9 34 -5 0 -11 18 -15 40 -3 22 -11 40 -16 40 -6 0 -10 9 -10 20 0 11 -4 20 -10 20 -5 0 -10 9 -10 19 0 11 -6 26 -13 33 -7 7 -20 29 -29 48 -9 19 -26 42 -37 50 -12 8 -21 20 -21 27 0 16 -167 183 -184 183 -8 0 -16 7 -20 15 -3 8 -12 15 -20 15 -8 0 -21 8 -28 19 -7 10 -28 22 -46 25 -17 4 -32 12 -32 17 0 5 -7 9 -15 9 -8 0 -15 4 -15 10 0 5 -18 13 -40 16 -22 4 -40 10 -40 15 0 5 -10 9 -23 9 -13 0 -28 5 -34 11 -6 6 -56 13 -112 16 -55 3 -101 10 -101 14 0 12 -77 12 -84 1z m168 -201 c3 -4 30 -11 59 -14 30 -3 63 -10 73 -15 11 -6 35 -18 54 -26 39 -19 72 -38 80 -47 3 -4 15 -9 28 -13 12 -4 22 -12 22 -17 0 -5 5 -9 11 -9 5 0 46 -36 90 -79 43 -44 79 -85 79 -90 0 -6 4 -11 9 -11 5 0 13 -10 17 -22 4 -13 10 -25 13 -28 13 -9 41 -78 41 -99 0 -12 5 -21 10 -21 6 0 10 -11 10 -24 0 -13 5 -26 11 -28 6 -2 13 -41 16 -88 2 -47 10 -95 16 -108 8 -16 8 -25 0 -30 -5 -4 -13 -50 -15 -102 -4 -56 -10 -96 -17 -98 -6 -2 -11 -15 -11 -28 0 -13 -4 -24 -9 -24 -5 0 -11 -18 -15 -40 -3 -22 -11 -40 -16 -40 -6 0 -10 -9 -10 -20 0 -11 -5 -20 -10 -20 -6 0 -15 -11 -20 -25 -5 -14 -17 -28 -25 -31 -8 -4 -15 -12 -15 -19 0 -16 -115 -135 -131 -135 -5 0 -20 -11 -33 -25 -13 -14 -28 -25 -35 -25 -6 0 -11 -4 -11 -10 0 -5 -16 -12 -35 -16 -19 -3 -35 -10 -35 -15 0 -5 -7 -9 -15 -9 -8 0 -15 -4 -15 -9 0 -5 -22 -12 -50 -16 -27 -4 -50 -11 -50 -16 0 -5 -18 -9 -39 -9 -22 0 -43 -4 -46 -10 -3 -6 -52 -10 -111 -10 -63 0 -104 4 -104 10 0 6 -17 10 -38 10 -21 0 -42 4 -48 10 -5 5 -32 13 -59 16 -28 4 -52 10 -55 13 -8 10 -44 31 -62 37 -10 4 -18 10 -18 15 0 5 -9 9 -19 9 -10 0 -21 7 -25 15 -3 8 -11 15 -18 15 -15 0 -168 150 -168 165 0 6 -9 17 -20 25 -11 8 -20 18 -20 22 0 15 -35 88 -42 88 -4 0 -11 18 -14 40 -4 22 -10 40 -15 40 -5 0 -9 10 -9 23 0 13 -5 28 -11 34 -17 17 -17 355 0 361 6 2 11 15 11 28 0 13 4 24 9 24 5 0 11 18 15 40 3 22 11 40 16 40 6 0 10 9 10 20 0 11 4 20 9 20 5 0 12 14 16 30 4 17 11 30 16 30 5 0 9 6 9 14 0 7 18 31 40 52 22 22 40 45 40 52 0 6 6 12 12 12 7 0 31 20 55 45 23 25 46 45 52 45 5 0 16 6 23 13 15 15 81 47 97 47 6 0 11 5 11 10 0 6 11 10 24 10 13 0 26 4 28 10 2 5 31 13 66 16 34 4 62 11 62 15 0 12 247 12 254 0z" style="fill: rgb(255, 255, 255);"></path>
    <path d="M2240 6500 c0 -5 -11 -10 -25 -10 -14 0 -25 -4 -25 -9 0 -5 -18 -11 -40 -15 -22 -3 -40 -11 -40 -16 0 -6 -10 -10 -22 -10 -13 0 -32 -7 -42 -15 -11 -8 -30 -15 -42 -15 -13 0 -25 -4 -28 -9 -3 -5 -18 -12 -33 -15 -40 -10 -83 -30 -83 -38 0 -4 -18 -11 -40 -14 -22 -4 -40 -10 -40 -15 0 -5 -9 -9 -20 -9 -11 0 -20 -4 -20 -9 0 -5 -13 -12 -28 -16 -15 -3 -34 -15 -42 -25 -8 -11 -20 -20 -27 -20 -16 0 -63 -47 -63 -63 0 -7 -9 -19 -20 -27 -12 -8 -23 -31 -27 -52 -3 -21 -9 -38 -14 -38 -5 0 -9 -22 -9 -50 0 -32 -4 -50 -12 -50 -9 0 -9 -3 0 -12 7 -7 12 -34 12 -60 0 -26 4 -48 9 -48 5 0 11 -18 15 -40 3 -22 11 -40 16 -40 6 0 10 -7 10 -15 0 -8 5 -15 10 -15 6 0 10 -10 10 -22 0 -13 7 -36 15 -52 8 -15 15 -37 15 -47 0 -11 4 -19 10 -19 5 0 13 -18 16 -40 4 -22 10 -40 15 -40 17 0 9 -22 -20 -51 -16 -16 -32 -29 -36 -29 -3 0 -18 -11 -33 -25 -15 -14 -31 -25 -35 -25 -5 0 -38 -29 -73 -65 -36 -36 -69 -65 -74 -65 -13 0 -120 -108 -120 -120 0 -5 -25 -35 -55 -65 -30 -31 -55 -61 -55 -66 0 -6 -16 -25 -35 -43 -19 -19 -35 -36 -35 -40 0 -3 -12 -20 -27 -36 -28 -31 -35 -32 -96 -7 -15 7 -27 15 -27 18 0 4 -18 9 -40 13 -22 3 -40 11 -40 16 0 6 -9 10 -20 10 -11 0 -20 4 -20 9 0 5 -18 11 -40 15 -22 3 -40 11 -40 16 0 6 -11 10 -24 10 -13 0 -26 6 -29 13 -5 17 -239 16 -245 -1 -2 -7 -10 -12 -18 -12 -8 0 -14 -4 -14 -9 0 -5 -11 -12 -25 -15 -14 -4 -25 -11 -25 -16 0 -6 -6 -10 -13 -10 -16 0 -67 -47 -67 -63 0 -7 -9 -19 -20 -27 -11 -8 -20 -18 -20 -23 0 -9 -5 -22 -44 -109 -9 -20 -16 -41 -16 -47 0 -6 -4 -11 -10 -11 -5 0 -10 -11 -10 -25 0 -14 -4 -25 -10 -25 -5 0 -13 -18 -16 -40 -4 -22 -10 -40 -15 -40 -5 0 -9 -9 -9 -20 0 -11 -4 -20 -9 -20 -5 0 -11 -18 -15 -40 -3 -22 -10 -40 -14 -40 -4 0 -14 -15 -22 -32 -11 -24 -15 -70 -15 -170 0 -124 2 -138 20 -155 20 -18 39 -45 52 -73 11 -24 37 -50 49 -50 6 0 19 -9 28 -19 10 -11 31 -23 47 -26 16 -4 29 -10 29 -13 0 -8 49 -32 63 -32 5 0 25 -7 45 -16 88 -39 101 -44 111 -44 6 0 11 -4 11 -9 0 -5 18 -11 40 -15 l40 -6 -6 -98 c-4 -53 -11 -98 -16 -100 -11 -5 -11 -519 0 -524 5 -1 12 -47 16 -100 l6 -96 -30 -7 c-16 -4 -30 -11 -30 -16 0 -5 -11 -9 -25 -9 -14 0 -25 -4 -25 -10 0 -5 -8 -10 -18 -10 -10 0 -27 -7 -38 -15 -10 -8 -29 -15 -41 -15 -13 0 -23 -4 -23 -10 0 -5 -18 -13 -40 -16 -22 -4 -40 -10 -40 -13 0 -4 -16 -13 -35 -21 -19 -8 -43 -24 -52 -37 -10 -13 -23 -23 -30 -23 -7 0 -13 -6 -13 -13 0 -7 -9 -19 -21 -27 -11 -8 -28 -31 -37 -50 -9 -19 -21 -38 -26 -42 -16 -11 -15 -270 2 -275 6 -3 12 -16 12 -29 0 -13 4 -24 9 -24 5 0 12 -16 15 -35 4 -19 11 -35 16 -35 6 0 10 -11 10 -25 0 -14 4 -25 10 -25 5 0 12 -17 16 -37 4 -21 10 -40 13 -43 13 -11 30 -49 36 -84 4 -20 11 -36 16 -36 5 0 9 -7 9 -15 0 -8 4 -15 9 -15 4 0 11 -16 14 -35 3 -19 17 -46 31 -60 14 -14 26 -31 26 -37 0 -13 39 -48 54 -48 6 0 17 -9 23 -19 7 -11 26 -22 43 -26 16 -4 30 -11 30 -16 0 -5 11 -9 25 -9 14 0 25 -4 25 -10 0 -13 157 -13 165 0 3 5 17 10 31 10 13 0 24 4 24 10 0 5 18 13 40 16 22 4 40 9 40 13 0 7 45 27 83 37 15 3 30 10 33 15 3 5 16 9 30 9 13 0 24 4 24 9 0 5 12 12 27 16 15 3 31 11 35 17 6 11 88 -63 88 -80 0 -5 11 -19 25 -32 14 -13 25 -28 25 -33 0 -5 29 -38 65 -73 36 -35 65 -69 65 -75 0 -13 85 -99 98 -99 5 0 39 -29 75 -65 37 -36 70 -65 75 -65 5 0 19 -11 32 -25 13 -14 28 -25 33 -25 17 0 67 -59 67 -79 0 -12 -4 -21 -9 -21 -5 0 -11 -18 -15 -40 -3 -22 -11 -40 -16 -40 -6 0 -10 -9 -10 -20 0 -11 -4 -20 -9 -20 -5 0 -11 -18 -15 -40 -3 -22 -11 -40 -16 -40 -6 0 -10 -11 -10 -25 0 -14 -4 -25 -10 -25 -5 0 -13 -18 -16 -40 -4 -22 -10 -40 -15 -40 -5 0 -9 -45 -9 -100 0 -55 4 -100 9 -100 5 0 11 -18 15 -40 4 -24 14 -45 26 -52 11 -7 20 -18 20 -25 0 -17 67 -83 85 -83 8 0 15 -4 15 -10 0 -5 6 -10 14 -10 7 0 19 -7 26 -15 7 -8 23 -15 36 -15 13 0 24 -4 24 -10 0 -5 18 -13 40 -16 22 -4 40 -10 40 -15 0 -5 7 -9 15 -9 8 0 15 -4 15 -9 0 -5 16 -12 36 -16 35 -6 73 -23 84 -36 3 -3 22 -9 43 -13 20 -4 37 -10 37 -14 0 -10 53 -32 94 -39 20 -3 36 -10 36 -14 0 -5 38 -9 85 -9 47 0 85 4 85 9 0 5 18 11 40 15 22 3 40 11 40 16 0 6 9 10 19 10 10 0 21 7 25 15 3 8 11 15 19 15 16 0 57 41 57 58 0 7 4 12 9 12 5 0 13 10 17 22 4 13 15 30 24 38 9 8 20 32 24 53 4 20 10 37 14 37 8 0 28 43 38 83 3 15 10 27 15 27 5 0 9 8 9 19 0 10 7 32 15 47 8 16 15 39 15 52 0 20 4 22 64 22 36 0 68 -4 71 -10 3 -5 46 -10 96 -10 53 0 89 -4 89 -10 0 -6 58 -10 155 -10 97 0 155 4 155 10 0 6 35 10 85 10 50 0 85 4 85 10 0 6 28 10 65 10 63 0 65 -1 65 -25 0 -14 5 -25 10 -25 6 0 10 -9 10 -20 0 -11 4 -20 10 -20 5 0 12 -17 16 -37 4 -21 10 -40 13 -43 11 -9 31 -49 31 -62 1 -7 9 -31 20 -53 11 -22 19 -46 20 -52 0 -7 4 -13 9 -13 5 0 11 -8 15 -17 11 -35 48 -83 64 -83 4 0 19 -11 32 -25 13 -14 29 -25 37 -25 7 0 13 -4 13 -10 0 -5 18 -13 40 -16 22 -4 40 -10 40 -15 0 -5 38 -9 85 -9 47 0 85 4 85 9 0 5 23 12 50 16 28 4 50 10 50 13 0 8 49 32 63 32 12 0 81 32 87 41 3 3 22 9 43 13 20 4 37 11 37 16 0 6 11 10 24 10 14 0 27 4 31 9 3 5 19 12 35 16 17 4 30 11 30 16 0 5 11 9 25 9 14 0 25 4 25 9 0 5 12 12 28 16 30 7 132 102 132 122 0 7 5 13 10 13 6 0 10 9 10 19 0 11 4 21 10 23 5 2 13 31 16 66 4 34 11 62 15 62 5 0 9 11 9 25 0 14 -4 25 -9 25 -4 0 -11 28 -15 63 -3 34 -11 64 -16 65 -6 2 -10 12 -10 23 0 10 -4 19 -10 19 -5 0 -13 18 -16 40 -4 22 -9 40 -13 40 -7 0 -27 45 -37 83 -3 15 -10 30 -15 33 -5 3 -9 16 -9 30 0 13 -4 24 -10 24 -5 0 -10 5 -10 11 0 14 39 49 54 49 6 0 20 11 30 25 10 14 25 25 32 25 8 0 33 20 56 45 23 25 47 45 51 45 12 0 227 212 227 223 0 5 20 28 45 53 25 24 45 48 45 54 0 5 14 23 30 38 17 16 30 35 30 43 1 16 50 56 50 40 0 -5 18 -12 40 -16 22 -4 40 -11 40 -16 0 -5 9 -9 20 -9 11 0 20 -4 20 -9 0 -5 18 -11 40 -15 22 -3 40 -10 40 -14 0 -9 47 -30 88 -38 17 -4 32 -10 32 -15 0 -5 13 -9 29 -9 17 0 33 -5 36 -10 8 -13 145 -13 145 0 0 6 11 10 24 10 14 0 27 4 31 9 3 5 19 12 35 16 17 4 30 11 30 16 0 5 6 9 13 9 19 0 104 91 112 120 4 14 11 27 14 30 9 6 41 75 41 87 0 15 25 63 32 63 4 0 11 18 14 40 4 22 10 40 15 40 5 0 9 9 9 20 0 11 4 20 9 20 5 0 12 18 16 40 4 22 10 40 13 40 10 0 30 49 38 90 4 19 12 38 17 42 13 8 12 208 0 217 -6 3 -13 22 -17 41 -3 20 -15 42 -27 50 -11 8 -27 27 -35 43 -8 15 -19 27 -25 27 -5 0 -21 11 -35 25 -14 14 -31 25 -39 25 -8 0 -15 3 -15 8 0 9 -46 30 -88 38 -17 4 -32 10 -32 15 0 5 -7 9 -15 9 -8 0 -15 4 -15 9 0 5 -18 11 -40 15 -22 3 -40 11 -40 16 0 6 -11 10 -24 10 -14 0 -27 4 -31 9 -3 5 -19 12 -35 16 -17 4 -30 11 -30 16 0 5 -11 9 -25 9 -14 0 -25 5 -25 10 0 6 -20 10 -45 10 -38 0 -51 -5 -75 -30 -29 -29 -43 -90 -21 -90 5 0 12 -11 15 -25 4 -16 13 -25 26 -25 11 0 20 -4 20 -10 0 -5 17 -12 38 -16 20 -4 39 -10 42 -13 7 -10 76 -41 89 -41 12 0 52 -21 61 -31 3 -3 22 -9 43 -13 20 -4 37 -11 37 -16 0 -6 9 -10 20 -10 11 0 20 -4 20 -10 0 -5 11 -10 25 -10 14 0 28 -7 31 -15 4 -8 14 -15 24 -15 11 0 22 -10 26 -22 4 -13 9 -25 13 -28 28 -23 44 -131 21 -145 -5 -3 -10 -17 -10 -31 0 -13 -4 -24 -10 -24 -5 0 -12 -17 -16 -37 -4 -21 -10 -40 -13 -43 -10 -7 -41 -76 -41 -89 0 -12 -21 -52 -31 -61 -3 -3 -9 -22 -13 -43 -4 -20 -11 -37 -16 -37 -6 0 -10 -8 -10 -18 0 -24 -29 -82 -41 -82 -5 0 -9 -7 -9 -15 0 -19 -36 -55 -55 -55 -8 0 -15 -4 -15 -10 0 -13 -137 -13 -145 0 -3 5 -17 10 -31 10 -13 0 -24 4 -24 10 0 5 -17 12 -37 16 -21 4 -40 10 -43 13 -7 10 -76 41 -89 41 -12 0 -52 21 -61 31 -3 3 -22 9 -42 13 -21 4 -38 11 -38 16 0 6 -11 10 -25 10 -14 0 -25 5 -25 10 0 6 -7 10 -15 10 -8 0 -15 -4 -15 -10 0 -5 -7 -10 -15 -10 -18 0 -85 -66 -85 -83 0 -7 -11 -21 -25 -31 -14 -10 -25 -24 -25 -31 0 -6 -9 -20 -20 -30 -11 -10 -20 -22 -20 -28 0 -5 -29 -38 -65 -73 -36 -35 -65 -68 -65 -73 0 -13 -107 -121 -120 -121 -5 0 -38 -29 -74 -65 -35 -36 -69 -65 -74 -65 -5 0 -17 -10 -28 -21 -10 -12 -28 -25 -39 -30 -31 -14 -54 -31 -101 -75 -33 -32 -44 -49 -44 -72 0 -17 5 -34 10 -37 6 -3 10 -14 10 -23 0 -9 7 -30 15 -46 8 -15 15 -33 15 -38 0 -13 32 -81 41 -88 3 -3 9 -22 13 -42 4 -21 11 -38 16 -38 6 0 10 -11 10 -25 0 -14 4 -25 9 -25 5 0 12 -18 16 -40 4 -22 11 -42 16 -46 12 -7 12 -134 0 -134 -5 0 -13 -10 -17 -22 -7 -25 -42 -57 -61 -58 -7 0 -13 -4 -13 -10 0 -5 -17 -12 -37 -16 -21 -4 -40 -10 -43 -13 -7 -10 -76 -41 -89 -41 -12 0 -52 -21 -61 -31 -3 -3 -22 -9 -42 -13 -21 -4 -38 -11 -38 -16 0 -6 -11 -10 -24 -10 -14 0 -27 -4 -31 -9 -3 -5 -19 -12 -35 -16 -17 -4 -30 -11 -30 -16 0 -5 -34 -9 -75 -9 -43 0 -75 4 -75 10 0 6 -7 10 -15 10 -18 0 -65 47 -65 65 0 8 -3 15 -8 15 -8 0 -42 73 -42 90 0 6 -4 10 -10 10 -5 0 -10 11 -10 25 0 14 -4 25 -10 25 -5 0 -12 17 -16 38 -4 20 -10 39 -13 42 -13 9 -41 78 -41 99 0 12 -4 21 -9 21 -5 0 -12 12 -15 26 -4 14 -19 38 -34 52 -25 26 -30 27 -117 24 -49 -1 -91 -7 -93 -12 -2 -6 -28 -10 -57 -10 -30 0 -57 -4 -60 -10 -4 -6 -95 -10 -241 -10 -149 0 -234 4 -234 10 0 6 -26 10 -59 10 -33 0 -61 4 -63 10 -1 5 -49 11 -104 12 -98 3 -102 2 -123 -22 -11 -14 -20 -35 -21 -47 0 -13 -4 -23 -10 -23 -5 0 -13 -18 -16 -40 -4 -22 -10 -40 -15 -40 -5 0 -9 -7 -9 -15 0 -8 -4 -15 -9 -15 -5 0 -12 -16 -16 -36 -6 -35 -23 -73 -36 -84 -3 -3 -9 -22 -13 -42 -4 -21 -10 -38 -14 -38 -4 0 -15 -18 -25 -40 -9 -22 -21 -40 -27 -40 -5 0 -10 -9 -10 -19 0 -12 -9 -21 -25 -25 -14 -4 -25 -11 -25 -16 0 -6 -33 -10 -75 -10 -41 0 -75 4 -75 9 0 5 -18 11 -40 15 -22 3 -40 11 -40 16 0 6 -10 10 -22 10 -13 0 -32 7 -42 15 -11 8 -28 15 -38 15 -10 0 -18 5 -18 10 0 6 -11 10 -25 10 -14 0 -25 4 -25 10 0 5 -17 12 -37 16 -21 4 -40 10 -43 13 -9 12 -78 41 -97 41 -10 0 -24 9 -31 20 -7 11 -19 20 -27 20 -8 0 -15 7 -15 15 0 9 -7 18 -15 21 -8 4 -15 17 -15 29 0 13 -4 27 -10 30 -13 8 -13 65 0 65 6 0 10 16 10 35 0 19 4 35 10 35 5 0 12 17 16 38 4 20 10 39 13 42 10 9 31 49 31 61 0 13 31 82 41 89 3 3 9 22 13 43 4 20 11 37 16 37 6 0 10 11 10 24 0 14 4 28 10 31 5 3 10 24 10 46 0 29 -7 47 -25 64 -13 14 -29 25 -35 25 -5 0 -20 11 -32 25 -12 14 -27 25 -33 25 -7 0 -20 11 -31 24 -10 14 -21 23 -26 20 -4 -3 -19 6 -33 20 -14 15 -30 26 -35 26 -11 0 -340 329 -340 340 0 4 -9 17 -20 30 -11 13 -20 28 -20 34 0 6 -11 20 -25 30 -14 10 -25 25 -25 32 0 8 -9 19 -20 26 -11 7 -20 20 -20 28 0 16 -20 35 -58 58 -26 15 -52 16 -52 2 0 -5 -11 -10 -24 -10 -14 0 -27 -4 -31 -9 -3 -5 -19 -12 -35 -16 -17 -4 -30 -11 -30 -16 0 -5 -11 -9 -25 -9 -14 0 -25 -4 -25 -10 0 -5 -18 -13 -40 -16 -22 -4 -40 -10 -40 -15 0 -5 -9 -9 -20 -9 -11 0 -20 -4 -20 -10 0 -5 -17 -12 -37 -16 -21 -4 -40 -10 -43 -13 -17 -20 -59 -31 -122 -31 -62 0 -75 3 -86 20 -7 11 -18 20 -26 20 -7 0 -16 8 -20 17 -6 19 -27 55 -37 63 -3 3 -9 22 -13 43 -4 20 -10 37 -14 37 -9 0 -32 50 -32 70 0 9 -7 25 -15 36 -8 10 -15 29 -15 42 0 12 -4 22 -10 22 -5 0 -10 5 -10 11 0 6 -7 27 -16 47 -9 21 -23 51 -30 69 -8 17 -14 43 -14 57 0 14 -4 26 -10 26 -5 0 -10 11 -10 24 0 14 5 28 10 31 6 3 10 19 10 35 0 16 7 35 15 44 8 8 15 19 15 25 0 6 7 11 15 11 8 0 15 4 15 9 0 5 16 12 35 15 19 4 35 11 35 16 0 6 7 10 15 10 8 0 15 5 15 10 0 6 9 10 21 10 21 0 90 28 99 41 3 3 22 9 43 13 20 4 37 11 37 16 0 6 11 10 25 10 14 0 25 4 25 10 0 5 16 12 35 16 19 3 35 10 35 15 0 5 5 9 10 9 6 0 20 9 32 20 20 18 21 25 14 152 -4 73 -11 137 -16 142 -13 13 -13 543 -1 548 6 2 13 65 17 141 l7 137 -31 29 c-16 16 -33 27 -36 24 -6 -7 -66 19 -66 29 0 4 -18 11 -40 14 -22 4 -40 9 -40 13 0 7 -45 27 -83 37 -15 3 -30 10 -33 15 -3 5 -16 9 -30 9 -13 0 -24 4 -24 9 0 5 -14 12 -30 16 -17 4 -30 11 -30 16 0 5 -7 9 -15 9 -27 0 -85 69 -85 101 0 16 -4 29 -10 29 -13 0 -13 35 -1 58 6 9 13 34 16 55 3 20 10 37 15 37 6 0 10 11 10 24 0 14 4 27 9 30 5 3 12 18 15 33 10 38 30 83 37 83 4 0 9 18 13 40 3 22 10 40 14 40 9 0 28 43 38 85 4 17 10 32 13 35 10 8 31 44 37 63 4 9 12 17 19 17 7 0 18 7 26 16 10 13 30 15 106 12 52 -1 97 -7 101 -13 12 -16 47 -33 86 -40 20 -4 36 -11 36 -16 0 -5 11 -9 25 -9 14 0 25 -4 25 -9 0 -5 14 -12 30 -16 16 -4 30 -11 30 -16 0 -5 11 -9 24 -9 14 0 27 -4 31 -9 3 -5 20 -13 37 -17 18 -3 40 -11 49 -17 21 -13 87 16 96 41 6 16 41 62 82 108 10 11 22 30 25 42 4 11 13 23 21 26 8 3 15 11 15 18 0 8 34 47 75 88 41 41 75 80 75 87 0 7 6 13 13 13 7 0 50 38 97 85 47 47 89 85 94 85 5 0 19 11 32 25 13 14 28 25 34 25 6 0 21 10 33 23 22 22 49 41 77 54 48 22 74 96 51 141 -18 34 -41 90 -41 101 0 6 -4 11 -10 11 -5 0 -10 11 -10 25 0 14 -4 25 -10 25 -5 0 -13 18 -16 40 -4 22 -10 40 -15 40 -5 0 -9 9 -9 20 0 11 -4 20 -10 20 -5 0 -13 18 -16 40 -4 22 -10 40 -15 40 -5 0 -9 11 -9 25 0 14 -4 25 -10 25 -5 0 -10 18 -10 40 0 22 5 40 10 40 6 0 10 11 10 24 0 13 7 29 15 36 8 7 15 19 15 26 0 8 6 14 13 14 8 0 22 9 31 19 10 11 30 22 44 26 37 9 82 29 82 36 0 4 18 9 40 13 22 3 40 11 40 16 0 6 11 10 24 10 14 0 27 4 31 9 3 5 19 12 35 16 17 4 30 11 30 16 0 5 11 9 25 9 14 0 25 4 25 10 0 5 18 13 40 16 22 4 40 10 40 15 0 5 34 9 75 9 42 0 75 -4 75 -10 0 -5 11 -12 25 -16 15 -4 25 -13 25 -24 0 -10 7 -20 15 -24 8 -3 15 -15 15 -26 0 -11 5 -20 10 -20 6 0 10 -7 10 -15 0 -8 4 -15 9 -15 5 0 11 -18 15 -40 3 -22 11 -40 16 -40 6 0 10 -9 10 -20 0 -11 4 -20 9 -20 5 0 11 -18 15 -40 3 -22 11 -40 16 -40 6 0 10 -11 10 -25 0 -14 4 -25 9 -25 5 0 12 -13 16 -30 4 -16 11 -32 16 -35 5 -4 9 -15 9 -26 0 -23 34 -59 55 -59 8 0 15 -4 15 -10 0 -22 46 -7 92 30 23 19 24 89 1 138 -9 21 -20 39 -24 42 -3 3 -9 22 -13 43 -4 20 -11 37 -16 37 -6 0 -10 11 -10 25 0 14 -4 25 -9 25 -5 0 -12 16 -15 35 -4 19 -11 35 -16 35 -6 0 -10 11 -10 25 0 14 -4 25 -10 25 -5 0 -10 4 -10 10 0 17 -34 90 -42 90 -5 0 -8 7 -8 15 0 8 -11 25 -25 37 -14 12 -25 28 -25 35 0 7 -5 13 -11 13 -7 0 -22 11 -34 24 -13 14 -39 28 -59 31 -20 4 -39 11 -42 16 -3 5 -16 9 -30 9 -13 0 -24 5 -24 10 0 6 -28 10 -65 10 -37 0 -65 -4 -65 -10z" style="fill: rgb(255, 255, 255);"></path>
    <path d="M3055 4610 c-3 -5 -26 -10 -50 -10 -24 0 -46 -4 -49 -9 -3 -5 -31 -12 -61 -16 -30 -3 -55 -11 -55 -16 0 -5 -11 -9 -25 -9 -14 0 -25 -4 -25 -9 0 -5 -18 -11 -40 -15 -22 -3 -40 -11 -40 -16 0 -6 -9 -10 -20 -10 -11 0 -20 -4 -20 -9 0 -5 -13 -12 -30 -16 -16 -4 -30 -11 -30 -16 0 -5 -9 -9 -20 -9 -11 0 -20 -4 -20 -9 0 -5 -8 -11 -17 -15 -21 -6 -51 -25 -71 -43 -7 -7 -18 -13 -23 -13 -6 0 -25 -16 -43 -35 -19 -19 -37 -35 -42 -35 -12 0 -134 -122 -134 -134 0 -4 -18 -25 -40 -47 -22 -22 -40 -45 -40 -51 0 -6 -8 -18 -17 -27 -21 -19 -41 -49 -49 -73 -4 -10 -10 -18 -15 -18 -5 0 -9 -6 -9 -12 -1 -7 -9 -31 -20 -53 -11 -22 -19 -46 -20 -52 0 -7 -3 -13 -8 -13 -10 0 -32 -52 -39 -94 -3 -20 -10 -36 -14 -36 -5 0 -9 -11 -9 -24 0 -14 -4 -27 -9 -31 -6 -3 -13 -37 -17 -75 -3 -39 -11 -70 -15 -70 -5 0 -9 -94 -9 -210 0 -115 4 -210 9 -210 5 0 12 -34 16 -75 4 -41 11 -75 16 -75 5 0 9 -11 9 -25 0 -14 4 -25 9 -25 5 0 12 -21 16 -47 4 -27 10 -50 13 -53 13 -10 42 -68 42 -84 0 -9 5 -16 10 -16 6 0 10 -7 10 -15 0 -8 4 -15 10 -15 5 0 12 -15 16 -34 3 -19 12 -37 20 -40 8 -3 14 -11 14 -19 0 -7 11 -23 25 -35 14 -12 25 -27 25 -33 0 -6 16 -26 35 -45 19 -18 35 -38 35 -44 0 -13 88 -100 101 -100 5 0 27 -18 48 -40 21 -22 44 -40 51 -40 6 0 21 -11 32 -25 11 -14 26 -25 34 -25 8 0 14 -4 14 -10 0 -5 9 -10 20 -10 11 0 23 -7 26 -15 4 -8 15 -15 25 -15 10 0 19 -4 19 -9 0 -5 14 -12 30 -16 17 -4 30 -10 30 -13 0 -9 45 -28 85 -37 39 -8 85 -28 85 -36 0 -4 29 -10 65 -14 36 -3 65 -11 65 -16 0 -5 23 -9 50 -9 28 0 50 -4 50 -10 0 -6 62 -10 165 -10 103 0 165 4 165 10 0 6 22 10 49 10 28 0 52 4 55 9 3 5 33 12 66 16 33 4 63 11 66 16 3 5 16 9 30 9 13 0 24 4 24 9 0 5 18 11 39 15 22 3 41 9 43 13 5 12 64 43 82 43 9 0 16 3 16 8 0 4 18 16 40 26 22 11 40 23 40 27 0 4 11 10 25 13 14 4 25 11 25 16 0 6 6 10 13 10 8 0 24 11 37 25 13 14 27 25 32 25 12 0 198 186 198 197 0 5 11 20 25 33 14 13 25 28 25 35 0 6 9 17 20 25 11 8 20 20 20 26 0 7 6 19 13 26 15 15 47 81 47 97 0 6 3 11 8 11 7 0 42 72 42 88 0 14 25 62 32 62 4 0 10 25 13 55 4 30 11 58 16 61 5 3 9 18 9 33 0 15 5 32 11 38 6 6 11 69 12 160 2 123 -1 152 -13 164 -25 23 -58 39 -80 39 -26 0 -80 -54 -80 -80 0 -11 -4 -20 -9 -20 -4 0 -11 -62 -14 -137 -3 -84 -10 -139 -16 -141 -6 -2 -11 -19 -11 -38 0 -19 -4 -34 -10 -34 -5 0 -13 -18 -16 -40 -4 -22 -10 -40 -15 -40 -5 0 -9 -11 -9 -24 0 -14 -4 -27 -9 -31 -5 -3 -12 -19 -16 -35 -4 -17 -10 -30 -15 -30 -4 0 -10 -8 -14 -17 -8 -25 -28 -55 -48 -74 -10 -9 -18 -21 -18 -27 0 -6 -11 -22 -25 -36 -14 -14 -25 -29 -25 -33 0 -13 -174 -183 -186 -183 -6 0 -19 -11 -30 -24 -10 -14 -29 -28 -43 -31 -14 -4 -35 -15 -46 -25 -11 -10 -31 -21 -45 -25 -14 -4 -27 -10 -30 -14 -10 -12 -69 -41 -84 -41 -9 0 -25 -5 -36 -10 -11 -5 -28 -14 -38 -19 -11 -5 -45 -12 -78 -16 -32 -4 -62 -12 -65 -18 -9 -13 -399 -13 -408 0 -3 6 -33 13 -66 17 -33 4 -61 11 -63 16 -2 6 -14 10 -27 10 -13 0 -27 5 -30 10 -3 6 -13 10 -21 10 -20 0 -94 33 -94 42 0 5 -4 8 -10 8 -17 0 -90 34 -90 42 0 5 -7 8 -15 8 -8 0 -25 11 -39 25 -14 14 -29 25 -34 25 -5 0 -21 14 -35 30 -15 17 -32 30 -38 30 -12 0 -109 95 -109 108 0 4 -13 21 -30 37 -17 16 -30 34 -30 40 0 6 -9 17 -20 25 -11 8 -20 20 -20 26 0 7 -6 19 -13 26 -15 15 -47 81 -47 97 0 6 -4 11 -10 11 -5 0 -12 17 -16 38 -4 20 -10 39 -13 42 -14 12 -31 52 -31 74 0 14 -5 28 -10 31 -6 3 -7 17 -4 30 3 12 1 26 -5 29 -6 4 -11 29 -11 57 0 27 -4 49 -10 49 -6 0 -10 53 -10 140 0 77 4 140 9 140 4 0 11 35 15 77 3 42 11 82 16 87 6 6 10 23 10 38 0 15 5 28 10 28 6 0 10 9 10 20 0 11 5 20 11 20 5 0 7 5 4 10 -7 11 16 70 27 70 3 0 9 14 13 30 4 17 11 30 16 30 5 0 9 9 9 20 0 11 5 20 10 20 6 0 10 6 10 13 0 8 11 24 25 37 14 13 25 30 25 37 0 8 7 16 15 19 8 4 15 12 15 20 0 17 167 184 183 184 7 0 21 11 31 25 10 14 24 25 31 25 6 0 20 9 29 19 10 11 31 23 47 26 16 4 29 10 29 13 0 8 74 42 90 42 6 0 10 5 10 10 0 6 11 10 24 10 13 0 26 5 28 11 2 6 25 13 51 16 26 3 47 10 47 14 0 5 13 9 28 9 15 0 32 4 38 10 5 5 66 13 134 17 119 6 125 7 152 35 21 22 28 38 28 68 0 22 -4 40 -10 40 -5 0 -10 7 -10 15 0 8 -7 15 -15 15 -8 0 -15 5 -15 10 0 6 -41 10 -104 10 -59 0 -108 -4 -111 -10z" style="fill: rgb(255, 255, 255);"></path>
  </g>
</svg>
