<svg version="1.1" x="0px" y="0px" width="100%" viewBox="0 0 128 128" xmlns="http://www.w3.org/2000/svg">
  <defs></defs>
  <g transform="matrix(0.243939, 0, 0, 0.243939, 0.125031, 0.756053)">
    <path fill="#ffffff" d="M 405.912 23 C 409.619 16.642 414.038 12.413 420 8.156 C 427.136 3.06 434.332 1.003 443 1 C 457.154 0.995 468.198 2.856 478.91 13.174 C 498.617 32.156 497.36 69.13 474 84.768 C 464.978 90.807 455.507 93.02 445 95 C 464.579 155.172 451.968 217.652 416.91 270 C 396.247 300.855 367.835 324.219 353.285 359 C 338.389 394.607 343.606 462.588 296 471.689 C 289.773 472.879 283.331 473.344 277 472.91 C 206.345 468.072 144.699 413.239 98.911 364 C 77.993 341.506 56.471 316.808 42.892 289 C 30.334 263.281 20 240.075 20 211 C 20 200.923 19.488 191.221 24.326 182 C 36.656 158.505 66.054 157.395 89 152.119 C 113.068 146.585 138.236 142.829 160 130.496 C 171.534 123.96 181.135 114.411 191 105.715 C 228.964 72.245 278.584 40.335 331 38.039 C 344.798 37.435 359.406 37.198 373 39.805 C 381.855 41.503 390.115 45.688 399 47 C 399.174 38.612 401.691 30.241 405.912 23 Z M 146 508.507 C 131.69 501.737 123.678 488.014 120.805 473 C 118.478 460.841 122.459 446.885 129.764 437.001 C 132.393 433.443 136.931 427.777 142 429.142 C 149.907 431.272 159.311 441.43 166 446.255 C 180.535 456.737 196.764 466.419 213 474 C 208.599 503.802 173.235 521.392 146 508.507 Z M 441 25.529 C 413.585 31.865 424.21 74.84 451 68.468 C 479.11 61.782 468.395 19.198 441 25.529 Z M 79 227 C 79.045 243.41 94.831 271.755 113 273.796 C 131.328 275.855 154.085 263.867 169 254.576 C 190.952 240.903 206.295 222.153 223.17 203 C 248.242 174.542 272.65 145.501 302 121.25 C 321.518 105.123 346.861 87.08 373 85 C 365.477 81.385 355.185 82 347 82 C 311.129 82 282.814 102.9 258 126.986 C 208.373 175.158 152.275 227 79 227 Z"></path>
    <path fill="#ed1d25" d="M 338 412 C 342.042 420.667 351.452 427.067 357.91 434 C 374.822 452.155 393.158 469.275 409.424 488 C 414.183 493.478 427.49 511.704 435.09 511.704 C 440.224 511.704 444.736 505.264 448 502 C 458.506 491.494 468.548 480.573 478.996 470 C 487.109 461.789 494.871 453.224 502.996 445 C 506.501 441.452 511.305 437.29 511.836 432 C 512.798 422.422 496.139 410.139 490 404 C 472.998 386.998 456.994 369.021 440 352 C 434.84 346.832 422.053 337.029 420.207 330 C 419.358 326.767 423.036 324.002 425.001 322 C 430.789 316.102 436.152 309.848 442 304 C 458.672 287.327 474.33 269.67 491 253 C 497.033 246.967 509.687 237.569 511.677 229 C 513.89 219.476 499.755 209.757 494 204 C 474.904 184.897 452.331 165.433 436 144 L 381.961 200 L 338 246 C 314.43 222.43 290.531 198.713 268.17 174 C 261.799 166.959 255.682 159.759 249.004 153 C 246.824 150.794 243.945 146.204 240.83 145.346 C 235.421 143.855 225.45 157.545 222 161 C 206.016 177.01 191.001 193.993 175 210 C 171.54 213.462 159.95 222.439 161.346 228 C 163.359 236.023 177.106 245.599 183 251.09 C 200.542 267.43 216.047 286.046 233 303 C 238.848 308.848 244.185 315.131 250.001 321 C 251.987 323.004 255.944 325.854 255.944 329 C 255.944 332.151 251.986 334.986 250.004 337 C 244.21 342.888 238.85 349.15 233 355 C 215.663 372.337 199.335 390.659 182 408 C 176.982 413.02 163.058 423.26 161.346 430.004 C 159.824 435.998 173.263 446.263 177 450 C 193.028 466.028 208.018 483.017 224 499 C 227.788 502.789 235.337 513.73 241.715 511.377 C 252.131 507.534 262.471 490.916 270.039 483 C 292.691 459.309 314.807 435.193 338 412 Z"></path>
  </g>
</svg>
