<svg version="1.1" x="0px" y="0px" width="100%" viewBox="0 0 128 128" xmlns="http://www.w3.org/2000/svg">
  <defs></defs>
  <path fill="#ffffff" d="M 99.134 5.366 C 100.039 3.815 101.116 2.784 102.57 1.746 C 104.31 0.503 106.066 0.001 108.181 0 C 111.633 -0.001 114.326 0.453 116.94 2.969 C 121.747 7.599 121.439 16.618 115.741 20.432 C 113.541 21.905 111.231 22.445 108.668 22.928 C 113.444 37.605 110.368 52.845 101.816 65.613 C 96.777 73.139 89.846 78.838 86.298 87.321 C 82.664 96.007 83.937 112.588 72.324 114.809 C 70.806 115.099 69.234 115.212 67.69 115.106 C 50.457 113.926 35.42 100.552 24.252 88.541 C 19.149 83.054 13.9 77.031 10.588 70.247 C 7.525 63.974 5.004 58.314 5.004 51.222 C 5.004 48.764 4.879 46.398 6.06 44.148 C 9.067 38.418 16.238 38.147 21.835 36.86 C 27.704 35.51 33.844 34.595 39.153 31.586 C 41.966 29.991 44.308 27.662 46.713 25.542 C 55.974 17.378 68.077 9.595 80.861 9.035 C 84.227 8.887 87.791 8.829 91.107 9.465 C 93.266 9.879 95.281 10.9 97.448 11.221 C 97.49 9.174 98.104 7.132 99.134 5.366 Z M 35.738 123.789 C 32.247 122.138 30.293 118.79 29.592 115.128 C 29.025 112.163 29.995 108.758 31.777 106.348 C 32.418 105.479 33.525 104.097 34.762 104.431 C 36.69 104.95 38.985 107.428 40.616 108.605 C 44.162 111.161 48.119 113.523 52.08 115.372 C 51.006 122.641 42.38 126.931 35.738 123.789 Z M 107.693 5.983 C 101.005 7.528 103.598 18.011 110.132 16.456 C 116.988 14.826 114.374 4.439 107.693 5.983 Z M 19.395 55.125 C 19.406 59.128 23.257 66.042 27.688 66.539 C 32.159 67.041 37.71 64.117 41.347 61.852 C 46.702 58.516 50.444 53.943 54.561 49.27 C 60.676 42.329 66.63 35.246 73.789 29.331 C 78.549 25.398 84.731 20.996 91.107 20.489 C 89.272 19.607 86.761 19.758 84.764 19.758 C 76.015 19.758 69.109 24.855 63.056 30.73 C 50.951 42.48 37.269 55.125 19.395 55.125 Z"></path>
</svg>
