<svg version="1.1" x="0px" y="0px" width="100%" viewBox="0 0 128 128" xmlns="http://www.w3.org/2000/svg">
  <defs></defs>
  <path style=" stroke:none;fill-rule:nonzero;fill:rgb(88.235294%,25.490196%,2.745098%);fill-opacity:1;" d="M 28 0.406 C 24.609 1.297 22.109 4.531 19.5 6.656 C 4.25 19.063 1.484 38.516 7.328 56.5 C 10.234 65.453 14.875 73.641 20.328 81.297 C 30.359 95.391 42.359 108.703 57 118.141 C 63.578 122.375 70.953 126.25 78.75 127.641 C 81.766 128.172 85.188 127.75 88.25 127.75 C 90.922 127.75 93.875 128.094 96.5 127.641 C 99.813 127.047 102.938 125.578 106 124.266 C 109.047 122.938 111.75 120.703 114.25 118.578 C 117.172 116.094 121.906 113 123.25 109.25 C 126.313 100.781 116.281 94.109 111 89.453 C 108.875 87.578 106.5 85.703 104 84.328 C 96.484 80.188 90.469 81.672 84.25 87.297 C 81.188 90.063 78.141 94.234 73.75 94.703 C 68.75 95.234 63.828 91.594 60.25 88.578 C 52.359 81.906 45.188 73.891 39.844 65 C 37.734 61.469 35.266 56.766 35.828 52.5 C 36.391 48.141 40.063 45.797 43.25 43.328 C 47.422 40.094 51.594 36.328 51.984 30.75 C 52.594 21.719 44.922 11.438 39.359 5 C 36.438 1.625 32.641 -0.828 28 0.406 Z M 28 0.406"></path>
</svg>
