<svg version="1.1" x="0px" y="0px" width="100%" viewBox="0 0 128 128" xmlns="http://www.w3.org/2000/svg">
  <defs></defs>
  <path fill="#ffffff" d="M 83.627 91.157 L 77.622 91.157 L 77.622 113.926 C 77.622 116.572 77.936 120.694 75.12 122.039 C 72.286 123.393 68.63 117.945 66.863 116.178 L 44.595 93.909 C 42.693 92.008 39.741 87.648 37.088 86.983 C 35.056 86.474 32.425 86.904 30.333 86.904 L 16.071 86.904 C 13.64 86.904 9.886 87.626 7.825 86.138 C 5.438 84.415 6.063 79.286 6.063 76.645 C 6.063 67.563 5.844 58.451 6.066 49.372 C 6.114 47.427 5.914 44.198 7.4 42.747 C 9.104 41.081 11.89 41.616 14.069 41.616 L 30.833 41.616 C 32.855 41.616 36.405 42.298 38.089 41.036 C 41.377 38.573 44.191 35.014 47.097 32.108 L 64.861 14.343 L 71.116 8.088 C 72.231 6.976 73.178 5.83 74.87 6.443 C 77.761 7.491 77.618 11.289 77.622 13.843 C 77.634 21.099 77.622 28.355 77.622 35.611 L 83.627 35.611 L 83.627 20.348 C 83.627 16.113 83.701 11.805 83.353 7.588 C 82.834 1.279 73.739 -2.132 68.865 1.462 C 65.273 4.11 62.253 7.694 59.107 10.841 C 53.309 16.638 47.512 22.453 41.592 28.115 C 39.35 30.259 37.32 32.92 34.836 34.781 C 33.152 36.043 29.602 35.361 27.58 35.361 C 21.939 35.361 16.179 35.035 10.566 35.569 C 9.163 35.702 7.684 35.414 6.313 35.808 C 3.352 36.66 0.404 39.988 0.312 43.117 C -0.004 53.855 0.308 64.651 0.308 75.394 C 0.308 79.242 -0.853 85.323 1.336 88.655 C 4.353 93.247 8.896 93.159 13.819 93.159 L 27.08 93.159 C 29.112 93.159 32.828 92.45 34.586 93.56 C 37.648 95.493 40.283 99.106 42.843 101.666 C 48.308 107.13 53.897 112.469 59.357 117.929 C 62.404 120.977 65.273 124.706 68.865 127.131 C 70.327 128.118 71.933 127.937 73.619 127.937 C 74.974 127.937 76.558 128.157 77.872 127.778 C 82.295 126.501 83.375 121.851 83.377 117.929 C 83.378 114.27 83.627 110.596 83.627 106.92 L 83.627 91.157 M 100.892 29.291 C 98.693 30.143 98.29 33.228 99.924 34.778 C 102.361 37.091 106.027 38.194 108.648 40.44 C 115.52 46.33 120.295 55.708 119.897 64.885 C 119.506 73.906 115.322 82.461 108.397 88.295 C 105.861 90.432 101.905 91.554 99.739 93.962 C 97.715 96.21 99.663 99.863 102.643 99.524 C 107.293 98.996 112.506 94.565 115.653 91.407 C 127.562 79.46 130.008 59.431 121.552 44.869 C 118.236 39.159 113.634 34.55 107.897 31.287 C 105.971 30.192 103.227 28.387 100.892 29.291 M 96.388 40.749 C 93.832 41.361 93.405 44.886 95.164 46.567 C 97.737 49.026 100.943 50.241 103.313 53.126 C 108.506 59.448 108.416 68.717 103.518 75.144 C 102.149 76.939 100.542 78.557 98.639 79.788 C 97.258 80.682 95.224 81.359 94.431 82.904 C 93.157 85.383 94.941 88.024 97.638 87.877 C 101.094 87.689 104.352 84.701 106.646 82.4 C 115.06 73.958 115.851 61.334 110.463 51.124 C 108.459 47.327 104.956 43.904 101.141 41.931 C 99.697 41.184 98.063 40.348 96.388 40.749 M 91.633 52.259 C 89.813 52.679 88.549 54.539 89.082 56.378 C 89.96 59.407 93.956 60.04 94.554 63.384 C 95.376 67.989 90.165 68.55 89.083 72.141 C 88.377 74.485 90.573 76.641 92.885 76.31 C 100.909 75.16 103.12 63.903 99.812 57.879 C 98.397 55.302 94.998 51.482 91.633 52.259 Z"></path>
</svg>
