<svg version="1.1" x="0px" y="0px" width="100%" viewBox="0 0 128 128" xmlns="http://www.w3.org/2000/svg">
  <defs></defs>
  <path fill="#ffffff" d="M 97.881 90.732 L 91.891 90.732 L 91.891 113.444 C 91.891 116.106 92.579 120.038 89.641 121.45 C 86.353 123.03 81.467 115.998 79.412 113.943 C 74.14 108.67 68.716 103.549 63.479 98.232 C 59.969 94.669 56.566 90.638 52.733 87.429 C 51.15 86.104 47.918 86.739 45.969 86.739 C 40.257 86.739 34.161 87.339 28.499 86.595 C 24.713 86.098 21.14 86.825 21.015 81.747 C 20.79 72.608 21.011 63.436 21.011 54.294 C 21.011 51.23 20.023 46.016 21.723 43.335 C 23.308 40.835 27.212 41.565 29.747 41.565 L 45.719 41.565 C 47.526 41.565 50.636 42.158 52.209 41.165 C 55.446 39.122 58.237 35.288 60.944 32.581 L 79.163 14.362 C 81.35 12.174 83.521 9.954 85.863 7.931 C 86.763 7.154 87.855 6.02 89.146 6.48 C 92.33 7.617 91.891 11.162 91.891 13.862 L 91.891 35.576 L 97.881 35.576 L 97.881 20.351 C 97.881 16.702 98.031 13.016 97.871 9.37 C 97.578 2.663 89.412 -2.857 83.448 1.624 C 80.201 4.064 77.48 7.176 74.599 10.013 C 69.001 15.527 63.468 21.11 57.865 26.62 C 55.217 29.224 52.584 32.971 49.42 34.948 C 47.684 36.034 43.979 35.326 41.976 35.326 C 37.726 35.326 33.48 35.524 29.247 35.575 C 24.251 35.634 19.783 34.927 16.513 39.569 C 14.136 42.943 15.271 48.826 15.271 52.796 C 15.271 63.594 14.941 74.45 15.275 85.242 C 15.377 88.533 18.727 91.698 21.76 92.57 C 23.781 93.15 26.406 92.729 28.499 92.729 L 42.475 92.729 C 44.594 92.729 48.117 92.042 49.847 93.46 C 53.191 96.202 56.124 99.725 59.168 102.799 C 65.208 108.899 71.246 115.029 77.438 120.975 C 81.409 124.787 85.977 129.832 92.141 127.332 C 97.059 125.338 97.881 120.626 97.881 115.94 L 97.881 90.732 M 76.667 49.053 L 76.667 49.802 L 87.015 60.074 L 90.031 63.435 L 86.621 67.243 L 76.667 77.255 L 76.667 77.505 C 77.514 78.414 79.582 81.346 80.911 81.346 C 82.173 81.346 83.749 78.984 84.566 78.166 C 87.731 75.001 92.415 71.655 94.637 67.771 L 95.136 67.771 C 96.965 71.515 102.016 75.307 105.076 78.138 C 106.092 79.078 107.072 80.675 108.36 81.227 C 109.654 81.782 112.628 78.74 112.744 77.492 C 112.868 76.166 110.541 74.579 109.705 73.732 C 106.302 70.286 102.965 66.223 99.129 63.279 C 102.38 61.472 105.206 57.524 107.833 54.886 C 109.289 53.424 111.423 51.899 112.494 50.134 C 113.308 48.793 109.99 45.386 108.635 45.601 C 107.507 45.781 106.279 47.584 105.512 48.356 C 103.033 50.854 100.544 53.344 98.044 55.82 C 97.35 56.508 96.004 58.474 95.005 58.598 C 94.1 58.71 92.227 56.27 91.609 55.625 C 89.073 52.979 86.435 50.436 83.882 47.805 C 83.248 47.151 81.901 45.4 80.87 45.507 C 79.326 45.667 77.848 48.151 76.667 49.053 Z"></path>
</svg>
