<svg version="1.1" x="0px" y="0px" width="100%" viewBox="0 0 256 256" xmlns="http://www.w3.org/2000/svg">
  <defs></defs>
  <g>
    <path fill="#AAAAAA" d="M 99.524 147.198 C 97.38 147.833 95.03 148.137 93.125 149.16 C 83.657 154.245 74.991 160.346 67.337 167.65 C 60.468 174.204 53.704 180.858 46.701 187.286 C 39.767 193.652 32.808 200.025 25.41 205.905 C 22.729 208.035 18.841 209.026 15.336 210.026 C 12.023 210.971 7.722 208.362 6.507 204.54 C 5.135 200.222 3.972 195.76 3.538 191.291 C 2.944 185.169 2.976 178.982 3.022 172.825 C 3.05 169.06 3.582 165.296 3.932 161.535 C 4.659 153.713 6.216 146.019 8.226 138.404 C 11.338 126.62 16.121 115.455 22.696 104.971 C 24.607 101.924 26.355 98.751 28.614 95.939 C 31.377 92.5 34.766 89.502 37.588 86.099 C 43.417 79.068 51.28 74.377 58.891 69.328 C 66.82 64.069 75.663 60.595 84.739 57.721 C 90.531 55.887 96.639 54.571 102.713 53.953 C 110.736 53.136 118.89 52.722 126.945 53.053 C 138.667 53.534 150.145 55.836 160.942 60.241 C 167.978 63.112 174.743 66.567 181.567 69.872 C 182.198 70.178 182.767 71.32 182.707 72.026 C 181.972 80.771 180.574 89.419 174.884 96.739 C 170.694 102.129 165.197 106.17 158.054 107.645 C 152.778 108.735 147.672 108.419 143.227 104.905 C 139.117 101.655 137.812 95.352 141.337 90.887 C 142.032 90.007 142.893 89.239 143.556 88.341 C 143.884 87.898 143.935 87.277 144.111 86.736 C 143.559 86.739 142.931 86.578 142.467 86.767 C 133.823 90.3 130.488 98.671 134.103 106.886 C 138.424 116.707 148.448 119.673 158.877 118.295 C 168.509 117.021 176.727 112.739 182.588 105.5 C 186.926 100.141 189.638 93.849 190.809 87.126 C 191.275 84.459 191.476 81.752 191.8 79.063 C 191.996 77.441 192.595 77.331 194.101 78.203 C 196.874 79.809 196.078 82.271 195.822 84.353 C 195.302 88.598 194.838 92.97 193.339 96.96 C 191.653 101.451 189.178 105.769 186.467 109.826 C 181.427 117.372 173.994 122.371 165.073 125.313 C 160.813 126.718 156.324 127.403 151.728 126.892 C 150.682 126.775 149.609 126.874 148.548 126.874 C 148.488 127.132 148.428 127.39 148.368 127.648 C 151.275 128.534 154.129 129.927 157.099 130.194 C 162.6 130.69 168.159 131.003 173.623 129.308 C 181.306 126.925 186.914 122.008 192.056 116.561 C 197.406 110.895 200.645 104.172 202.556 96.866 C 203.272 94.127 204.103 91.415 204.881 88.69 C 208.012 89.448 209.135 91.37 208.742 94.057 C 207.257 104.185 202.019 113.013 197.871 122.234 C 195.852 126.724 194.658 131.437 195.855 136.79 C 197.444 133.438 198.683 130.392 200.292 127.526 C 202.886 122.903 205.824 118.447 208.431 113.83 C 211.005 109.272 213.349 104.6 215.876 99.824 C 217.069 100.624 218.394 101.895 218.181 103.896 C 217.536 109.987 216.773 116.068 216.064 122.153 C 216.025 122.489 216.059 122.834 216.059 123.66 C 219.672 120.091 221.838 116.25 223.285 112.002 C 223.565 111.804 223.845 111.605 224.125 111.407 C 224.291 111.89 224.419 112.389 224.63 112.854 C 225.119 113.927 225.79 114.944 226.139 116.052 C 228.391 123.196 231.78 125.037 239.844 123.774 C 243.532 123.197 247.108 122.157 248.38 118.795 C 250.326 113.648 251.564 110.706 245.986 105.719 C 244.5 104.39 243.13 102.95 241.936 101.332 C 245.04 101.6 247.021 103.491 248.913 105.318 C 255.487 111.669 254.384 123.398 243.747 128.044 C 240.145 129.618 236.378 131.049 233.822 134.113 C 233.422 134.593 233.112 135.394 233.235 135.956 C 234.707 142.667 236.511 149.322 237.739 156.069 C 238.956 162.754 239.79 169.513 240.463 176.268 C 241.008 181.733 241.328 187.243 241.252 192.727 C 241.198 196.578 240.468 200.446 239.723 204.252 C 239.395 205.923 238.439 207.55 237.48 209.035 C 235.974 211.366 233.754 211.864 231.193 210.439 C 226.729 207.954 223.806 204.063 221.221 200.037 C 217.922 194.898 214.974 189.562 211.742 184.084 C 211.608 183.381 211.78 182.829 211.582 182.442 C 207.692 174.837 204.012 167.124 199.729 159.714 C 197.58 155.997 194.621 152.57 191.486 149.492 C 186.501 144.597 180.755 145.28 176.575 150.883 C 176.036 151.606 175.892 152.585 175.565 153.446 C 173.272 157.806 170.639 162.044 168.776 166.559 C 166.618 171.786 165.122 177.25 163.369 182.62 C 160.497 191.416 157.743 200.247 154.731 209.002 C 153.88 211.475 152.482 213.833 151.019 216.064 C 148.709 219.585 144.334 219.523 142.207 215.841 C 140.178 212.329 138.323 208.674 136.937 204.907 C 134.627 198.628 132.757 192.209 130.685 185.853 C 130.554 185.45 130.284 185.085 129.927 184.468 C 129.878 183.393 130.201 182.514 130.04 181.719 C 129.583 179.449 128.934 177.212 128.351 174.963 C 126.423 167.539 124.281 160.162 119.357 153.881 C 115.174 148.546 109.846 144.987 102.261 145.908 C 101.305 146.024 100.434 146.753 99.524 147.198 M 70.727 124.955 C 70.458 124.113 70.255 123.247 69.909 122.434 C 67.152 115.948 61.621 112.341 54.741 110.652 C 49.547 109.377 45.906 112.945 42.732 115.866 C 39.836 118.532 37.506 121.973 35.76 125.436 C 30.084 136.693 25.856 148.464 22.891 160.591 C 20.629 169.848 18.634 179.163 16.619 188.471 C 15.775 192.369 15.187 196.315 14.483 200.239 C 14.674 200.359 14.864 200.478 15.055 200.598 C 15.3 200.253 15.506 199.876 15.796 199.568 C 18.432 196.764 21.036 193.932 23.751 191.195 C 24.968 189.967 26.484 189 27.745 187.805 C 32.707 183.103 37.599 178.338 42.565 173.64 C 44.381 171.923 46.503 170.467 48.186 168.651 C 51.244 165.355 54.339 162.043 56.944 158.44 C 60.903 152.964 64.811 147.405 68.076 141.559 C 70.857 136.578 72.002 131.045 70.727 124.955 Z"></path>
    <path fill="#666666" d="M 175.625 153.601 C 175.892 152.585 176.036 151.606 176.575 150.883 C 180.755 145.28 186.501 144.597 191.486 149.492 C 194.621 152.57 197.58 155.997 199.729 159.714 C 204.012 167.124 207.692 174.837 211.582 182.442 C 211.78 182.829 211.608 183.381 211.598 184.001 C 211.15 186.844 210.826 189.562 210.25 192.233 C 209.009 197.996 208.105 203.854 205.234 209.2 C 204.994 209.647 204.769 210.118 204.433 210.499 C 201.309 214.027 198.417 214.294 195.746 210.424 C 192.664 205.958 190.141 201.074 188.035 196.127 C 185.949 191.227 184.541 186.057 183.097 180.941 C 181.318 174.639 179.847 168.262 178.166 161.934 C 177.437 159.186 176.518 156.482 175.625 153.601 Z"></path>
    <path fill="#666666" d="M 99.632 147.346 C 100.434 146.753 101.305 146.024 102.261 145.908 C 109.846 144.987 115.174 148.546 119.357 153.881 C 124.281 160.162 126.423 167.539 128.351 174.963 C 128.934 177.212 129.583 179.449 130.04 181.719 C 130.201 182.514 129.878 183.393 129.758 184.403 C 126.783 190.954 123.996 197.411 120.791 203.682 C 119.332 206.537 117.262 209.195 115.069 211.629 C 113.104 213.81 111.057 213.476 109.285 211.088 C 106.731 207.647 105.763 203.647 105.126 199.623 C 103.761 191.007 102.556 182.368 101.385 173.727 C 101.043 171.197 101.032 168.628 100.875 166.076 C 100.495 159.882 100.117 153.688 99.632 147.346 Z"></path>
    <path fill="transparent" fill-opacity="0" d="M 70.76 125.142 C 72.002 131.045 70.857 136.578 68.076 141.559 C 64.811 147.406 60.903 152.964 56.944 158.44 C 54.339 162.043 51.244 165.356 48.186 168.652 C 46.502 170.467 44.381 171.923 42.565 173.641 C 37.599 178.338 32.707 183.104 27.746 187.806 C 26.484 189 24.968 189.968 23.75 191.196 C 21.036 193.933 18.432 196.764 15.795 199.569 C 15.505 199.876 15.299 200.253 15.055 200.598 C 14.864 200.479 14.673 200.359 14.483 200.24 C 15.187 196.315 15.775 192.369 16.619 188.471 C 18.633 179.163 20.628 169.849 22.891 160.592 C 25.856 148.464 30.084 136.694 35.76 125.437 C 37.506 121.973 39.835 118.531 42.732 115.866 C 45.906 112.946 49.547 109.377 54.742 110.653 C 61.622 112.342 67.153 115.948 69.91 122.434 C 70.255 123.247 70.459 124.113 70.76 125.142 M 59.805 121.454 C 59.381 120.934 59.017 120.355 58.522 119.902 C 56.245 117.815 52.812 117.579 50.327 119.296 C 47.577 121.196 46.706 124.754 48.248 127.791 C 49.462 130.186 52.741 131.585 55.567 130.915 C 59.556 129.97 61.441 126.045 59.805 121.454 Z"></path>
    <path fill="#ADADAD" d="M 59.886 121.606 C 61.441 126.045 59.556 129.97 55.567 130.915 C 52.741 131.585 49.462 130.186 48.248 127.791 C 46.706 124.754 47.577 121.196 50.327 119.296 C 52.812 117.579 56.245 117.815 58.522 119.902 C 59.017 120.355 59.381 120.934 59.886 121.606 Z"></path>
  </g>
</svg>
