<svg version="1.1" x="0px" y="0px" width="100%" viewBox="0 0 512 512" enable-background="new 0 0 512 512" xmlns="http://www.w3.org/2000/svg">
<path fill="#ffffff" d="M 405.912 23 C 409.619 16.642 414.038 12.413 420 8.156 C 427.136 3.06 434.332 1.003 443 1 C 457.154 0.995 468.198 2.856 478.91 13.174 C 498.617 32.156 497.36 69.13 474 84.768 C 464.978 90.807 455.507 93.02 445 95 C 464.579 155.172 451.968 217.652 416.91 270 C 396.247 300.855 367.835 324.219 353.285 359 C 338.389 394.607 343.606 462.588 296 471.689 C 289.773 472.879 283.331 473.344 277 472.91 C 206.345 468.072 144.699 413.239 98.911 364 C 77.993 341.506 56.471 316.808 42.892 289 C 30.334 263.281 20 240.075 20 211 C 20 200.923 19.488 191.221 24.326 182 C 36.656 158.505 66.054 157.395 89 152.119 C 113.068 146.585 138.236 142.829 160 130.496 C 171.534 123.96 181.135 114.411 191 105.715 C 228.964 72.245 278.584 40.335 331 38.039 C 344.798 37.435 359.406 37.198 373 39.805 C 381.855 41.503 390.115 45.688 399 47 C 399.174 38.612 401.691 30.241 405.912 23 Z M 146 508.507 C 131.69 501.737 123.678 488.014 120.805 473 C 118.478 460.841 122.459 446.885 129.764 437.001 C 132.393 433.443 136.931 427.777 142 429.142 C 149.907 431.272 159.311 441.43 166 446.255 C 180.535 456.737 196.764 466.419 213 474 C 208.599 503.802 173.235 521.392 146 508.507 Z M 441 25.529 C 413.585 31.865 424.21 74.84 451 68.468 C 479.11 61.782 468.395 19.198 441 25.529 Z M 79 227 C 79.045 243.41 94.831 271.755 113 273.796 C 131.328 275.855 154.085 263.867 169 254.576 C 190.952 240.903 206.295 222.153 223.17 203 C 248.242 174.542 272.65 145.501 302 121.25 C 321.518 105.123 346.861 87.08 373 85 C 365.477 81.385 355.185 82 347 82 C 311.129 82 282.814 102.9 258 126.986 C 208.373 175.158 152.275 227 79 227 Z"/>
</svg>