<svg version="1.1" x="0px" y="0px" width="100%" viewBox="0 0 512 512" enable-background="new 0 0 512 512" xmlns="http://www.w3.org/2000/svg">
<path fill="#e14107" d="M208 176L215 154C219.567 155.381 228.041 160.651 232.698 157.933C235.461 156.319 236.304 151.763 237.4 149C240.554 141.054 243.758 133.1 246.495 125C254.91 100.091 263.154 69.7641 287 55.3233C325.329 32.1122 384.4 56.1612 387.91 104C389.337 123.451 380.576 143.193 373.615 161C364.349 184.705 355.914 208.975 347.495 233C344.017 242.923 338.052 253.502 337 264C323.112 255.974 312.444 243.363 298 235.64C259.007 214.789 209.662 211.599 169 229.865C75.1456 272.024 49.0017 401.121 126.3 472.514C137.624 482.973 149.93 492.232 164 498.691C247.134 536.859 346.876 490.721 370.265 402C375.358 382.681 375.523 359.751 372.7 340C371.53 331.812 366.569 322.651 366.993 314.424C367.624 302.169 376.452 287.57 380.505 276C391.768 243.854 404.241 212.148 415.505 180C421.119 163.979 428.949 147.847 431.675 131C437.358 95.8857 427.13 59.9203 402.715 34.0895C357.441 -13.8089 278.586 -8.58051 236.174 39C220.349 56.7525 214.834 80.3855 206.385 102C198.361 122.527 191.089 143.324 183.47 164C181.516 169.303 174.139 181.301 178.604 186.502C184.139 192.948 199.164 195.788 207 198.495C209.8 199.463 213.787 201.478 216.775 200.353C220.688 198.881 225.445 186.262 222.957 182.699C220.475 179.144 212.011 177.147 208 176z"/>
</svg>
