<svg version="1.1" x="0px" y="0px" width="100%" viewBox="0 0 512 512" enable-background="new 0 0 512 512" xmlns="http://www.w3.org/2000/svg">
<path fill="#ffffff" d="M 357.688 64 C 368.414 87.81 365 114.487 365 140 C 365 183.662 365.394 227.316 366.004 271 C 366.142 280.907 374.45 288.929 379.467 297 C 386.987 309.098 393.103 323.974 395.739 338 C 410.425 416.136 362.233 500.492 279 510.714 C 260.018 513.045 236.422 512.769 218 507.572 C 148.842 488.059 108.487 421.936 115.17 352 C 117.042 332.402 124.112 313.963 133.85 297 C 138.941 288.132 149.802 278.523 149.995 268 C 150.73 228.031 150 187.977 150 148 C 150 123.877 148.195 98.447 154.91 75 C 166.409 34.847 202.395 6.952 243 1.425 C 290.97 -5.105 337.732 19.7 357.688 64 Z M 194 241 C 205.577 238.257 216.135 232.583 228 230.424 C 262.307 224.184 290.103 231.586 322 243 L 322 136 C 322 116.567 324.759 95.842 315.626 78 C 291.486 30.842 221.835 35.3 199.373 81 C 191.384 97.256 194 119.374 194 137 C 194 171.632 193.713 206.369 194 241 Z"/>
</svg>
