<svg version="1.1" x="0px" y="0px" width="100%" viewBox="0 0 512 512" enable-background="new 0 0 512 512" xmlns="http://www.w3.org/2000/svg">
<path fill="#ffffff" d="M 188 256 L 189 256 L 214 231 L 214 230 L 185 201 C 180.868 196.866 175.118 192.426 175.199 186 C 175.321 176.355 186.019 171.05 194 175.534 C 208.294 183.564 220.451 200.451 232 212 C 238.684 207.292 244.247 200.795 249.999 195 C 252.007 192.977 255.793 190.17 255.793 187 C 255.793 182.117 247.163 176.163 244 173 C 234.118 163.118 223.607 154.029 219.924 140 C 215.71 123.948 221.314 106.574 218.196 90 C 209.553 44.059 172.092 6.07 125 0.28600000000000003 C 117.398 -0.647 88.296 -3.974 88.296 8.001 C 88.296 12.877 93.894 16.893 97 20 C 104.969 27.972 113.248 35.732 120.91 44 C 147.156 72.324 127.255 98.361 104 119.91 C 78.757 143.301 55.331 128.331 35 108 C 29.77 102.769 15.613 82.979 7.044 87.198 C 0.131 90.601 1 101.579 1 108 C 0.999 128.411 6.2940000000000005 148.55 17.065 166 C 35.239 195.445 66.663 214.549 101 217.83 C 116.16 219.279 131.306 214.446 146 219.698 C 162.864 225.726 175.657 243.657 188 256 M 180 303 L 179 303 L 149 272 L 148 272 L 51 369 C 34.52 385.48 13.693 401.218 6.004 424 C -12.211 477.968 44.173 530.753 97 508.127 C 118.242 499.029 133.986 478.014 150 462 L 244 368 C 238.247 359.833 230.055 353.056 223 346 C 220.61 343.609 215.056 339.753 215.056 336 C 215.056 331.709 222.239 326.761 225 324 L 254 295 L 344 205 C 355.587 193.413 369.344 173.356 384 166.028 C 388.201 163.928 394.432 165 399 165 L 432 165 C 436.49 165 444.748 166.583 448.363 163.397 C 456.507 156.218 461.395 138.704 466.247 129 L 497.247 67 C 501.464 58.567 509.108 48.263 510.886 39 C 512.445 30.875 492.395 16.357 487 11.001 C 484.612 8.63 481.73 4.832 478 4.955 C 469.271 5.244 456.787 14.859 449 18.753 L 382 52.247 C 374.299 56.098 356.701 61.065 352.028 68.39 C 349.474 72.394 351 80.421 351 85 C 351 98.135 354.936 118.689 350.397 131 C 348.123 137.168 340.548 142.459 336 147 C 324.498 158.483 312.509 169.491 301 181 L 221 261 C 207.589 274.411 190.92 287.498 180 303 Z M 328 258 C 322.949 263.051 305.207 275.652 305.207 283 C 305.207 286.503 309.778 289.773 312 292 L 333 313 L 417 397 C 426.084 406.084 452.902 424.382 449.605 438.999 C 447.866 446.71 438.89 451.08 432 446.991 C 419.666 439.67 409.119 425.119 399 415 L 315 331 L 294 310 C 291.773 307.778 288.503 303.207 285 303.207 C 279.015 303.207 265.562 319.189 262.377 324 C 258.506 329.845 268.34 336.34 272 340 L 313 381 L 386 454 C 398.779 466.779 410.93 482.479 429 487.572 C 463.789 497.376 497.027 464.75 489.714 430 C 485.674 410.805 469.194 398.194 456 385 L 402 331 L 354 283 C 345.671 274.671 337.637 264.789 328 258 Z"/>
</svg>