<svg version="1.1" x="0px" y="0px" width="100%" viewBox="0 0 512 512" enable-background="new 0 0 512 512" xmlns="http://www.w3.org/2000/svg">
<path fill="#AAAAAA" d="M 203.308 281.115 C 199.623 282.207 195.585 282.729 192.312 284.487 C 176.042 293.225 161.151 303.709 147.998 316.259 C 136.195 327.522 124.571 338.955 112.538 350.001 C 100.622 360.94 88.664 371.891 75.953 381.995 C 71.346 385.656 64.665 387.359 58.641 389.077 C 52.948 390.701 45.558 386.218 43.47 379.65 C 41.112 372.231 39.114 364.562 38.368 356.883 C 37.347 346.364 37.403 335.732 37.482 325.152 C 37.53 318.682 38.444 312.215 39.045 305.752 C 40.295 292.31 42.969 279.09 46.424 266.005 C 51.771 245.755 59.99 226.57 71.288 208.554 C 74.572 203.318 77.576 197.865 81.458 193.034 C 86.206 187.125 92.03 181.972 96.878 176.125 C 106.895 164.043 120.407 155.983 133.485 147.307 C 147.11 138.269 162.305 132.299 177.902 127.361 C 187.854 124.21 198.349 121.949 208.787 120.886 C 222.574 119.483 236.586 118.771 250.427 119.339 C 270.569 120.166 290.292 124.122 308.846 131.691 C 320.937 136.624 332.561 142.562 344.288 148.241 C 345.371 148.766 346.349 150.73 346.247 151.943 C 344.983 166.97 342.581 181.83 332.803 194.409 C 325.603 203.671 316.157 210.614 303.883 213.149 C 294.818 215.022 286.043 214.479 278.405 208.44 C 271.343 202.856 269.1 192.025 275.157 184.353 C 276.351 182.841 277.832 181.52 278.971 179.978 C 279.534 179.216 279.622 178.149 279.924 177.219 C 278.976 177.224 277.896 176.948 277.1 177.273 C 262.245 183.344 256.515 197.729 262.727 211.845 C 270.152 228.72 287.377 233.818 305.298 231.449 C 321.849 229.26 335.971 221.902 346.041 209.463 C 353.496 200.255 358.156 189.442 360.169 177.89 C 360.969 173.307 361.314 168.655 361.871 164.035 C 362.208 161.247 363.238 161.058 365.826 162.557 C 370.591 165.316 369.222 169.547 368.783 173.124 C 367.889 180.419 367.091 187.931 364.516 194.788 C 361.618 202.506 357.365 209.925 352.707 216.897 C 344.046 229.864 331.274 238.454 315.944 243.509 C 308.624 245.924 300.911 247.101 293.013 246.222 C 291.216 246.022 289.371 246.192 287.548 246.192 C 287.445 246.635 287.343 247.078 287.24 247.521 C 292.234 249.043 297.139 251.438 302.243 251.897 C 311.695 252.748 321.247 253.286 330.637 250.374 C 343.838 246.279 353.475 237.83 362.312 228.47 C 371.504 218.734 377.071 207.181 380.354 194.626 C 381.584 189.92 383.012 185.259 384.349 180.578 C 389.729 181.88 391.66 185.183 390.984 189.799 C 388.433 207.204 379.432 222.373 372.304 238.219 C 368.834 245.933 366.783 254.032 368.839 263.23 C 371.569 257.47 373.699 252.236 376.463 247.311 C 380.921 239.367 385.969 231.711 390.449 223.777 C 394.872 215.944 398.9 207.917 403.243 199.709 C 405.293 201.084 407.569 203.268 407.204 206.706 C 406.095 217.173 404.784 227.622 403.566 238.079 C 403.499 238.657 403.558 239.249 403.558 240.669 C 409.765 234.536 413.487 227.936 415.974 220.636 C 416.455 220.295 416.936 219.954 417.417 219.614 C 417.703 220.444 417.922 221.301 418.286 222.1 C 419.126 223.943 420.279 225.692 420.879 227.596 C 424.749 239.871 430.572 243.035 444.428 240.865 C 450.766 239.873 456.911 238.086 459.097 232.308 C 462.441 223.465 464.568 218.408 454.983 209.839 C 452.43 207.556 450.075 205.081 448.024 202.3 C 453.358 202.761 456.761 206.01 460.012 209.151 C 471.309 220.063 469.414 240.219 451.136 248.202 C 444.945 250.907 438.472 253.365 434.081 258.631 C 433.394 259.455 432.86 260.832 433.072 261.798 C 435.601 273.329 438.702 284.765 440.812 296.359 C 442.902 307.847 444.335 319.461 445.493 331.068 C 446.429 340.459 446.979 349.927 446.848 359.351 C 446.755 365.969 445.501 372.615 444.22 379.156 C 443.657 382.027 442.015 384.823 440.366 387.375 C 437.778 391.379 433.963 392.236 429.563 389.787 C 421.893 385.516 416.869 378.831 412.428 371.913 C 406.758 363.082 401.693 353.913 396.139 344.499 C 395.909 343.291 396.205 342.343 395.864 341.678 C 389.18 328.609 382.856 315.355 375.496 302.623 C 371.803 296.236 366.719 290.347 361.332 285.058 C 352.765 276.646 342.892 277.82 335.709 287.448 C 334.783 288.69 334.536 290.373 333.974 291.852 C 330.034 299.344 325.509 306.627 322.307 314.384 C 318.6 323.366 316.029 332.756 313.016 341.984 C 308.081 357.099 303.349 372.274 298.173 387.317 C 296.711 391.567 294.309 395.619 291.795 399.452 C 287.825 405.503 280.307 405.396 276.652 399.07 C 273.166 393.035 269.979 386.754 267.597 380.281 C 263.628 369.491 260.414 358.461 256.854 347.539 C 256.628 346.846 256.165 346.219 255.551 345.159 C 255.466 343.312 256.021 341.801 255.745 340.436 C 254.959 336.534 253.845 332.69 252.842 328.826 C 249.53 316.068 245.849 303.392 237.388 292.6 C 230.199 283.431 221.044 277.317 208.01 278.898 C 206.367 279.098 204.871 280.35 203.308 281.115 M 153.824 242.894 C 153.362 241.447 153.013 239.959 152.418 238.561 C 147.681 227.417 138.176 221.219 126.354 218.316 C 117.429 216.125 111.172 222.256 105.718 227.276 C 100.741 231.856 96.738 237.769 93.737 243.721 C 83.984 263.064 76.718 283.291 71.624 304.13 C 67.736 320.037 64.308 336.043 60.846 352.037 C 59.396 358.735 58.385 365.516 57.175 372.259 C 57.503 372.465 57.83 372.67 58.158 372.876 C 58.579 372.283 58.933 371.635 59.431 371.106 C 63.961 366.288 68.436 361.422 73.101 356.719 C 75.193 354.609 77.798 352.947 79.965 350.894 C 88.491 342.814 96.897 334.625 105.431 326.553 C 108.552 323.602 112.197 321.1 115.09 317.98 C 120.344 312.316 125.663 306.625 130.139 300.433 C 136.942 291.023 143.658 281.471 149.268 271.425 C 154.047 262.866 156.015 253.359 153.824 242.894 Z"/>
<path fill="#666666" d="M 334.077 292.119 C 334.536 290.373 334.783 288.69 335.709 287.448 C 342.892 277.82 352.765 276.646 361.332 285.058 C 366.719 290.347 371.803 296.236 375.496 302.623 C 382.856 315.355 389.18 328.609 395.864 341.678 C 396.205 342.343 395.909 343.291 395.891 344.357 C 395.121 349.242 394.565 353.913 393.576 358.503 C 391.443 368.405 389.89 378.472 384.956 387.658 C 384.544 388.426 384.157 389.236 383.579 389.889 C 378.212 395.952 373.241 396.411 368.652 389.761 C 363.356 382.086 359.02 373.694 355.402 365.194 C 351.817 356.773 349.398 347.89 346.917 339.099 C 343.86 328.269 341.331 317.311 338.444 306.438 C 337.19 301.716 335.611 297.068 334.077 292.119 Z"/>
<path fill="#666666" d="M 203.493 281.369 C 204.871 280.35 206.367 279.098 208.01 278.898 C 221.044 277.317 230.199 283.431 237.388 292.6 C 245.849 303.392 249.53 316.068 252.842 328.826 C 253.845 332.69 254.959 336.534 255.745 340.436 C 256.021 341.801 255.466 343.312 255.26 345.048 C 250.148 356.304 245.359 367.4 239.851 378.176 C 237.344 383.082 233.787 387.649 230.019 391.832 C 226.643 395.579 223.126 395.005 220.08 390.902 C 215.692 384.989 214.028 378.115 212.933 371.201 C 210.588 356.395 208.518 341.551 206.506 326.702 C 205.917 322.355 205.898 317.94 205.629 313.555 C 204.975 302.911 204.327 292.267 203.493 281.369 Z"/>
<path fill="transparent" fill-opacity="0" d="M 153.881 243.215 C 156.015 253.359 154.047 262.866 149.268 271.425 C 143.658 281.471 136.942 291.023 130.139 300.433 C 125.663 306.625 120.344 312.316 115.09 317.98 C 112.197 321.1 108.552 323.602 105.431 326.553 C 96.897 334.625 88.491 342.814 79.965 350.894 C 77.798 352.947 75.193 354.609 73.101 356.719 C 68.436 361.422 63.961 366.288 59.431 371.106 C 58.933 371.635 58.579 372.283 58.158 372.876 C 57.83 372.67 57.503 372.465 57.175 372.259 C 58.385 365.516 59.396 358.735 60.846 352.037 C 64.308 336.043 67.736 320.037 71.624 304.13 C 76.718 283.291 83.984 263.064 93.737 243.721 C 96.738 237.769 100.741 231.856 105.718 227.276 C 111.172 222.256 117.429 216.125 126.354 218.316 C 138.176 221.219 147.681 227.417 152.418 238.561 C 153.013 239.959 153.362 241.447 153.881 243.215 M 135.056 236.878 C 134.327 235.983 133.702 234.989 132.851 234.209 C 128.937 230.623 123.039 230.219 118.768 233.169 C 114.043 236.433 112.546 242.548 115.195 247.767 C 117.283 251.882 122.916 254.286 127.772 253.135 C 134.627 251.511 137.867 244.766 135.056 236.878 Z"/>
<path fill="#ADADAD" d="M 135.194 237.138 C 137.867 244.766 134.627 251.511 127.772 253.135 C 122.916 254.286 117.283 251.882 115.195 247.767 C 112.546 242.548 114.043 236.433 118.768 233.169 C 123.039 230.219 128.937 230.623 132.851 234.209 C 133.702 234.989 134.327 235.983 135.194 237.138 Z"/>
</svg>