<svg version="1.1" x="0px" y="0px" width="100%" viewBox="0 0 512 512" enable-background="new 0 0 512 512" xmlns="http://www.w3.org/2000/svg">
<path fill="#ffffff" d="M338 364L314 364L314 455C313.999 465.576 315.255 482.052 303.999 487.427C292.674 492.837 278.062 471.062 271 464L182 375C174.402 367.402 162.603 349.976 152 347.318C143.879 345.282 133.363 347 125 347L68 347C58.2846 347 43.2815 349.888 35.044 343.941C25.5055 337.056 28 316.554 28 306C28 269.703 27.1257 233.285 28.0147 197C28.2052 189.224 27.4062 176.32 33.3434 170.519C40.157 163.861 51.2903 166 60 166L127 166C135.08 166 149.267 168.727 156 163.682C169.139 153.837 180.389 139.612 192 128L263 57L288 32C292.456 27.5529 296.241 22.9756 303 25.4251C314.557 29.6135 313.984 44.7943 314 55C314.047 83.9998 314 113 314 142L338 142L338 81C338 64.0727 338.295 46.8551 336.907 30C334.83 4.78674 298.482 -8.84564 279 5.51776C264.646 16.1008 252.576 30.4237 240 43C216.829 66.1707 193.662 89.4132 170 112.039C161.039 120.608 152.925 131.246 143 138.682C136.267 143.727 122.08 141 114 141C91.4536 141 68.4306 139.696 46 141.83C40.3896 142.364 34.481 141.214 29 142.789C17.1646 146.191 5.38294 159.493 5.01543 172C3.7543 214.917 5 258.062 5 301C5 316.381 0.359013 340.685 9.10802 354C21.1667 372.352 39.3258 372 59 372L112 372C120.12 372 134.972 369.166 142 373.603C154.238 381.329 164.769 395.769 175 406C196.84 427.84 219.178 449.178 241 471C253.18 483.18 264.644 498.084 279 507.775C284.844 511.721 291.263 511 298 511C303.418 511 309.748 511.878 315 510.362C332.679 505.259 336.994 486.673 337 471C337.006 456.375 338 441.692 338 427L338 364M407.004 116.742C398.214 120.146 396.604 132.475 403.133 138.671C412.873 147.915 427.528 152.324 438 161.3C465.466 184.842 484.553 222.32 482.961 259C481.396 295.054 464.674 329.243 437 352.561C426.863 361.102 411.054 365.588 402.394 375.21C394.307 384.196 402.091 398.795 414 397.442C432.588 395.33 453.421 377.619 465.999 365C513.596 317.249 523.372 237.2 489.576 179C476.323 156.179 457.929 137.761 435 124.719C427.301 120.34 416.335 113.129 407.004 116.742M389.001 162.534C378.787 164.98 377.079 179.069 384.109 185.787C394.394 195.615 407.208 200.471 416.678 212C437.434 237.268 437.075 274.313 417.497 300C412.028 307.176 405.603 313.64 398 318.56C392.478 322.133 384.349 324.84 381.179 331.015C376.091 340.925 383.221 351.48 394 350.892C407.809 350.138 420.83 338.199 429.999 329C463.63 295.26 466.791 244.806 445.255 204C437.246 188.826 423.246 175.146 408 167.258C402.228 164.272 395.695 160.931 389.001 162.534M370 208.537C362.725 210.216 357.674 217.651 359.804 225C363.312 237.104 379.284 239.633 381.671 253C384.957 271.403 364.132 273.646 359.808 288C356.985 297.368 365.763 305.984 375 304.66C407.073 300.063 415.909 255.076 402.687 231C397.03 220.7 383.446 205.433 370 208.537z"/>
</svg>
